<svg width="211" height="36" viewBox="0 0 211 36" fill="none" xmlns="http://www.w3.org/2000/svg">
<mask id="path-1-outside-1_1_4592" maskUnits="userSpaceOnUse" x="36.1309" y="5" width="174" height="25" fill="black">
<rect fill="white" x="36.1309" y="5" width="174" height="25"/>
<path d="M44.7209 28C44.5009 28 44.3209 27.93 44.1809 27.79C44.0409 27.65 43.9709 27.47 43.9709 27.25V11.17H38.5109C38.3109 11.17 38.1409 11.1 38.0009 10.96C37.8609 10.82 37.7909 10.65 37.7909 10.45V7.75C37.7909 7.53 37.8609 7.35 38.0009 7.21C38.1409 7.07 38.3109 7 38.5109 7H54.2309C54.4509 7 54.6309 7.07 54.7709 7.21C54.9109 7.35 54.9809 7.53 54.9809 7.75V10.45C54.9809 10.65 54.9109 10.82 54.7709 10.96C54.6309 11.1 54.4509 11.17 54.2309 11.17H48.8009V27.25C48.8009 27.47 48.7309 27.65 48.5909 27.79C48.4509 27.93 48.2709 28 48.0509 28H44.7209ZM56.4694 28C56.2694 28 56.0994 27.93 55.9594 27.79C55.8194 27.65 55.7494 27.47 55.7494 27.25V13.15C55.7494 12.95 55.8194 12.78 55.9594 12.64C56.0994 12.48 56.2694 12.4 56.4694 12.4H59.4094C59.6094 12.4 59.7794 12.48 59.9194 12.64C60.0794 12.78 60.1594 12.95 60.1594 13.15V14.35C60.6594 13.73 61.2694 13.25 61.9894 12.91C62.7294 12.57 63.5794 12.4 64.5394 12.4H65.8294C66.0294 12.4 66.1994 12.47 66.3394 12.61C66.4794 12.75 66.5494 12.93 66.5494 13.15V15.73C66.5494 15.95 66.4794 16.13 66.3394 16.27C66.1994 16.41 66.0294 16.48 65.8294 16.48H63.1894C62.3094 16.48 61.6194 16.73 61.1194 17.23C60.6194 17.71 60.3694 18.4 60.3694 19.3V27.25C60.3694 27.47 60.2994 27.65 60.1594 27.79C60.0194 27.93 59.8394 28 59.6194 28H56.4694ZM73.1128 28.3C72.0528 28.3 71.1028 28.1 70.2628 27.7C69.4228 27.28 68.7528 26.72 68.2528 26.02C67.7528 25.32 67.5028 24.54 67.5028 23.68C67.5028 22.26 68.0728 21.14 69.2128 20.32C70.3728 19.5 71.8928 18.94 73.7728 18.64L77.7028 18.07V17.53C77.7028 16.75 77.5228 16.15 77.1628 15.73C76.8028 15.31 76.1728 15.1 75.2728 15.1C74.6128 15.1 74.0828 15.23 73.6828 15.49C73.2828 15.75 72.9728 16.09 72.7528 16.51C72.5928 16.77 72.3628 16.9 72.0628 16.9H69.2128C68.9928 16.9 68.8228 16.84 68.7028 16.72C68.5828 16.58 68.5328 16.42 68.5528 16.24C68.5528 15.9 68.6828 15.5 68.9428 15.04C69.2028 14.58 69.6028 14.13 70.1428 13.69C70.6828 13.23 71.3728 12.85 72.2128 12.55C73.0528 12.25 74.0828 12.1 75.3028 12.1C76.5628 12.1 77.6428 12.25 78.5428 12.55C79.4428 12.85 80.1628 13.27 80.7028 13.81C81.2428 14.35 81.6428 14.98 81.9028 15.7C82.1628 16.4 82.2928 17.16 82.2928 17.98V27.25C82.2928 27.47 82.2228 27.65 82.0828 27.79C81.9428 27.93 81.7628 28 81.5428 28H78.6028C78.4028 28 78.2328 27.93 78.0928 27.79C77.9528 27.65 77.8828 27.47 77.8828 27.25V26.14C77.6228 26.52 77.2728 26.88 76.8328 27.22C76.3928 27.54 75.8628 27.8 75.2428 28C74.6428 28.2 73.9328 28.3 73.1128 28.3ZM74.3128 25.18C74.9728 25.18 75.5628 25.04 76.0828 24.76C76.6028 24.48 77.0128 24.05 77.3128 23.47C77.6128 22.89 77.7628 22.16 77.7628 21.28V20.77L74.9728 21.22C73.8928 21.4 73.1028 21.67 72.6028 22.03C72.1028 22.39 71.8528 22.83 71.8528 23.35C71.8528 23.73 71.9628 24.06 72.1828 24.34C72.4228 24.62 72.7328 24.83 73.1128 24.97C73.4928 25.11 73.8928 25.18 74.3128 25.18ZM86.6452 28C86.4452 28 86.2752 27.93 86.1352 27.79C85.9952 27.65 85.9252 27.47 85.9252 27.25V13.15C85.9252 12.93 85.9952 12.75 86.1352 12.61C86.2752 12.47 86.4452 12.4 86.6452 12.4H89.5852C89.8052 12.4 89.9852 12.47 90.1252 12.61C90.2652 12.75 90.3352 12.93 90.3352 13.15V14.32C90.8552 13.68 91.5252 13.15 92.3452 12.73C93.1652 12.31 94.1652 12.1 95.3452 12.1C96.5252 12.1 97.5552 12.37 98.4352 12.91C99.3352 13.43 100.035 14.2 100.535 15.22C101.055 16.22 101.315 17.44 101.315 18.88V27.25C101.315 27.47 101.235 27.65 101.075 27.79C100.935 27.93 100.765 28 100.565 28H97.3852C97.1652 28 96.9852 27.93 96.8452 27.79C96.7052 27.65 96.6352 27.47 96.6352 27.25V19.06C96.6352 18 96.3752 17.18 95.8552 16.6C95.3552 16 94.6152 15.7 93.6352 15.7C92.6952 15.7 91.9452 16 91.3852 16.6C90.8252 17.18 90.5452 18 90.5452 19.06V27.25C90.5452 27.47 90.4752 27.65 90.3352 27.79C90.1952 27.93 90.0252 28 89.8252 28H86.6452ZM111.06 28.3C109.82 28.3 108.75 28.16 107.85 27.88C106.97 27.58 106.25 27.22 105.69 26.8C105.15 26.38 104.74 25.96 104.46 25.54C104.2 25.1 104.06 24.73 104.04 24.43C104.02 24.21 104.09 24.03 104.25 23.89C104.41 23.75 104.57 23.68 104.73 23.68H107.64C107.7 23.68 107.76 23.69 107.82 23.71C107.88 23.73 107.94 23.78 108 23.86C108.26 24.04 108.53 24.25 108.81 24.49C109.09 24.71 109.41 24.9 109.77 25.06C110.15 25.22 110.62 25.3 111.18 25.3C111.84 25.3 112.4 25.17 112.86 24.91C113.32 24.63 113.55 24.24 113.55 23.74C113.55 23.38 113.44 23.08 113.22 22.84C113.02 22.6 112.63 22.38 112.05 22.18C111.47 21.98 110.61 21.76 109.47 21.52C108.39 21.28 107.47 20.96 106.71 20.56C105.95 20.16 105.38 19.66 105 19.06C104.62 18.44 104.43 17.7 104.43 16.84C104.43 16.06 104.67 15.31 105.15 14.59C105.65 13.87 106.38 13.28 107.34 12.82C108.3 12.34 109.5 12.1 110.94 12.1C112.04 12.1 113 12.24 113.82 12.52C114.66 12.78 115.36 13.12 115.92 13.54C116.48 13.94 116.9 14.36 117.18 14.8C117.48 15.22 117.64 15.59 117.66 15.91C117.68 16.11 117.62 16.28 117.48 16.42C117.34 16.56 117.18 16.63 117 16.63H114.33C114.23 16.63 114.14 16.62 114.06 16.6C113.98 16.56 113.91 16.51 113.85 16.45C113.61 16.29 113.36 16.11 113.1 15.91C112.86 15.69 112.57 15.5 112.23 15.34C111.89 15.18 111.45 15.1 110.91 15.1C110.25 15.1 109.74 15.25 109.38 15.55C109.04 15.83 108.87 16.19 108.87 16.63C108.87 16.91 108.96 17.17 109.14 17.41C109.32 17.65 109.69 17.87 110.25 18.07C110.81 18.27 111.66 18.48 112.8 18.7C114.16 18.94 115.24 19.3 116.04 19.78C116.84 20.26 117.41 20.82 117.75 21.46C118.11 22.08 118.29 22.75 118.29 23.47C118.29 24.41 118.01 25.25 117.45 25.99C116.89 26.71 116.07 27.28 114.99 27.7C113.93 28.1 112.62 28.3 111.06 28.3ZM121.889 28C121.689 28 121.519 27.93 121.379 27.79C121.239 27.65 121.169 27.47 121.169 27.25V13.15C121.169 12.93 121.239 12.75 121.379 12.61C121.519 12.47 121.689 12.4 121.889 12.4H124.889C125.109 12.4 125.289 12.47 125.429 12.61C125.569 12.75 125.639 12.93 125.639 13.15V27.25C125.639 27.47 125.569 27.65 125.429 27.79C125.289 27.93 125.109 28 124.889 28H121.889ZM121.799 10C121.599 10 121.429 9.93 121.289 9.79C121.149 9.65 121.079 9.47 121.079 9.25V6.85C121.079 6.63 121.149 6.45 121.289 6.31C121.429 6.15 121.599 6.07 121.799 6.07H124.949C125.169 6.07 125.349 6.15 125.489 6.31C125.649 6.45 125.729 6.63 125.729 6.85V9.25C125.729 9.47 125.649 9.65 125.489 9.79C125.349 9.93 125.169 10 124.949 10H121.799ZM136.902 28C135.662 28 134.602 27.8 133.722 27.4C132.842 26.98 132.172 26.34 131.712 25.48C131.272 24.62 131.052 23.54 131.052 22.24V15.94H128.712C128.492 15.94 128.312 15.87 128.172 15.73C128.032 15.59 127.962 15.41 127.962 15.19V13.15C127.962 12.93 128.032 12.75 128.172 12.61C128.312 12.47 128.492 12.4 128.712 12.4H131.052V7.45C131.052 7.23 131.122 7.05 131.262 6.91C131.422 6.77 131.602 6.7 131.802 6.7H134.742C134.962 6.7 135.142 6.77 135.282 6.91C135.422 7.05 135.492 7.23 135.492 7.45V12.4H139.242C139.442 12.4 139.612 12.47 139.752 12.61C139.892 12.75 139.962 12.93 139.962 13.15V15.19C139.962 15.41 139.892 15.59 139.752 15.73C139.612 15.87 139.442 15.94 139.242 15.94H135.492V21.88C135.492 22.64 135.622 23.24 135.882 23.68C136.162 24.1 136.642 24.31 137.322 24.31H139.512C139.712 24.31 139.882 24.38 140.022 24.52C140.162 24.66 140.232 24.83 140.232 25.03V27.25C140.232 27.47 140.162 27.65 140.022 27.79C139.882 27.93 139.712 28 139.512 28H136.902ZM143.929 28C143.709 28 143.529 27.93 143.389 27.79C143.249 27.65 143.179 27.47 143.179 27.25V7.75C143.179 7.53 143.249 7.35 143.389 7.21C143.529 7.07 143.709 7 143.929 7H157.309C157.529 7 157.709 7.07 157.849 7.21C157.989 7.35 158.059 7.53 158.059 7.75V10.3C158.059 10.52 157.989 10.7 157.849 10.84C157.709 10.98 157.529 11.05 157.309 11.05H147.859V16.12H156.709C156.929 16.12 157.109 16.19 157.249 16.33C157.389 16.47 157.459 16.65 157.459 16.87V19.42C157.459 19.62 157.389 19.79 157.249 19.93C157.109 20.07 156.929 20.14 156.709 20.14H147.859V27.25C147.859 27.47 147.789 27.65 147.649 27.79C147.509 27.93 147.329 28 147.109 28H143.929ZM161.88 28C161.66 28 161.48 27.93 161.34 27.79C161.2 27.65 161.13 27.47 161.13 27.25V7.45C161.13 7.23 161.2 7.05 161.34 6.91C161.48 6.77 161.66 6.7 161.88 6.7H164.88C165.08 6.7 165.25 6.77 165.39 6.91C165.53 7.05 165.6 7.23 165.6 7.45V27.25C165.6 27.47 165.53 27.65 165.39 27.79C165.25 27.93 165.08 28 164.88 28H161.88ZM176.532 28.3C174.872 28.3 173.482 28.03 172.362 27.49C171.242 26.93 170.382 26.14 169.782 25.12C169.202 24.1 168.882 22.91 168.822 21.55C168.802 21.15 168.792 20.7 168.792 20.2C168.792 19.68 168.802 19.23 168.822 18.85C168.882 17.47 169.222 16.28 169.842 15.28C170.462 14.26 171.332 13.48 172.452 12.94C173.572 12.38 174.932 12.1 176.532 12.1C178.112 12.1 179.462 12.38 180.582 12.94C181.702 13.48 182.572 14.26 183.192 15.28C183.812 16.28 184.152 17.47 184.212 18.85C184.252 19.23 184.272 19.68 184.272 20.2C184.272 20.7 184.252 21.15 184.212 21.55C184.152 22.91 183.822 24.1 183.222 25.12C182.642 26.14 181.792 26.93 180.672 27.49C179.552 28.03 178.172 28.3 176.532 28.3ZM176.532 25C177.512 25 178.252 24.7 178.752 24.1C179.252 23.48 179.522 22.58 179.562 21.4C179.582 21.1 179.592 20.7 179.592 20.2C179.592 19.7 179.582 19.3 179.562 19C179.522 17.84 179.252 16.95 178.752 16.33C178.252 15.71 177.512 15.4 176.532 15.4C175.552 15.4 174.802 15.71 174.282 16.33C173.782 16.95 173.512 17.84 173.472 19C173.452 19.3 173.442 19.7 173.442 20.2C173.442 20.7 173.452 21.1 173.472 21.4C173.512 22.58 173.782 23.48 174.282 24.1C174.802 24.7 175.552 25 176.532 25ZM191.26 28C190.98 28 190.76 27.93 190.6 27.79C190.46 27.65 190.35 27.47 190.27 27.25L185.98 13.36C185.94 13.26 185.92 13.16 185.92 13.06C185.92 12.88 185.98 12.73 186.1 12.61C186.24 12.47 186.4 12.4 186.58 12.4H189.22C189.48 12.4 189.68 12.47 189.82 12.61C189.96 12.75 190.05 12.88 190.09 13L192.82 22.27L195.73 13.06C195.77 12.92 195.86 12.78 196 12.64C196.16 12.48 196.38 12.4 196.66 12.4H198.37C198.65 12.4 198.86 12.48 199 12.64C199.16 12.78 199.26 12.92 199.3 13.06L202.21 22.27L204.94 13C204.96 12.88 205.04 12.75 205.18 12.61C205.34 12.47 205.54 12.4 205.78 12.4H208.42C208.6 12.4 208.75 12.47 208.87 12.61C209.01 12.73 209.08 12.88 209.08 13.06C209.08 13.16 209.07 13.26 209.05 13.36L204.73 27.25C204.67 27.47 204.56 27.65 204.4 27.79C204.26 27.93 204.05 28 203.77 28H201.46C201.18 28 200.96 27.93 200.8 27.79C200.64 27.65 200.52 27.47 200.44 27.25L197.53 18.37L194.56 27.25C194.5 27.47 194.39 27.65 194.23 27.79C194.07 27.93 193.85 28 193.57 28H191.26Z"/>
</mask>
<path d="M44.7209 28C44.5009 28 44.3209 27.93 44.1809 27.79C44.0409 27.65 43.9709 27.47 43.9709 27.25V11.17H38.5109C38.3109 11.17 38.1409 11.1 38.0009 10.96C37.8609 10.82 37.7909 10.65 37.7909 10.45V7.75C37.7909 7.53 37.8609 7.35 38.0009 7.21C38.1409 7.07 38.3109 7 38.5109 7H54.2309C54.4509 7 54.6309 7.07 54.7709 7.21C54.9109 7.35 54.9809 7.53 54.9809 7.75V10.45C54.9809 10.65 54.9109 10.82 54.7709 10.96C54.6309 11.1 54.4509 11.17 54.2309 11.17H48.8009V27.25C48.8009 27.47 48.7309 27.65 48.5909 27.79C48.4509 27.93 48.2709 28 48.0509 28H44.7209ZM56.4694 28C56.2694 28 56.0994 27.93 55.9594 27.79C55.8194 27.65 55.7494 27.47 55.7494 27.25V13.15C55.7494 12.95 55.8194 12.78 55.9594 12.64C56.0994 12.48 56.2694 12.4 56.4694 12.4H59.4094C59.6094 12.4 59.7794 12.48 59.9194 12.64C60.0794 12.78 60.1594 12.95 60.1594 13.15V14.35C60.6594 13.73 61.2694 13.25 61.9894 12.91C62.7294 12.57 63.5794 12.4 64.5394 12.4H65.8294C66.0294 12.4 66.1994 12.47 66.3394 12.61C66.4794 12.75 66.5494 12.93 66.5494 13.15V15.73C66.5494 15.95 66.4794 16.13 66.3394 16.27C66.1994 16.41 66.0294 16.48 65.8294 16.48H63.1894C62.3094 16.48 61.6194 16.73 61.1194 17.23C60.6194 17.71 60.3694 18.4 60.3694 19.3V27.25C60.3694 27.47 60.2994 27.65 60.1594 27.79C60.0194 27.93 59.8394 28 59.6194 28H56.4694ZM73.1128 28.3C72.0528 28.3 71.1028 28.1 70.2628 27.7C69.4228 27.28 68.7528 26.72 68.2528 26.02C67.7528 25.32 67.5028 24.54 67.5028 23.68C67.5028 22.26 68.0728 21.14 69.2128 20.32C70.3728 19.5 71.8928 18.94 73.7728 18.64L77.7028 18.07V17.53C77.7028 16.75 77.5228 16.15 77.1628 15.73C76.8028 15.31 76.1728 15.1 75.2728 15.1C74.6128 15.1 74.0828 15.23 73.6828 15.49C73.2828 15.75 72.9728 16.09 72.7528 16.51C72.5928 16.77 72.3628 16.9 72.0628 16.9H69.2128C68.9928 16.9 68.8228 16.84 68.7028 16.72C68.5828 16.58 68.5328 16.42 68.5528 16.24C68.5528 15.9 68.6828 15.5 68.9428 15.04C69.2028 14.58 69.6028 14.13 70.1428 13.69C70.6828 13.23 71.3728 12.85 72.2128 12.55C73.0528 12.25 74.0828 12.1 75.3028 12.1C76.5628 12.1 77.6428 12.25 78.5428 12.55C79.4428 12.85 80.1628 13.27 80.7028 13.81C81.2428 14.35 81.6428 14.98 81.9028 15.7C82.1628 16.4 82.2928 17.16 82.2928 17.98V27.25C82.2928 27.47 82.2228 27.65 82.0828 27.79C81.9428 27.93 81.7628 28 81.5428 28H78.6028C78.4028 28 78.2328 27.93 78.0928 27.79C77.9528 27.65 77.8828 27.47 77.8828 27.25V26.14C77.6228 26.52 77.2728 26.88 76.8328 27.22C76.3928 27.54 75.8628 27.8 75.2428 28C74.6428 28.2 73.9328 28.3 73.1128 28.3ZM74.3128 25.18C74.9728 25.18 75.5628 25.04 76.0828 24.76C76.6028 24.48 77.0128 24.05 77.3128 23.47C77.6128 22.89 77.7628 22.16 77.7628 21.28V20.77L74.9728 21.22C73.8928 21.4 73.1028 21.67 72.6028 22.03C72.1028 22.39 71.8528 22.83 71.8528 23.35C71.8528 23.73 71.9628 24.06 72.1828 24.34C72.4228 24.62 72.7328 24.83 73.1128 24.97C73.4928 25.11 73.8928 25.18 74.3128 25.18ZM86.6452 28C86.4452 28 86.2752 27.93 86.1352 27.79C85.9952 27.65 85.9252 27.47 85.9252 27.25V13.15C85.9252 12.93 85.9952 12.75 86.1352 12.61C86.2752 12.47 86.4452 12.4 86.6452 12.4H89.5852C89.8052 12.4 89.9852 12.47 90.1252 12.61C90.2652 12.75 90.3352 12.93 90.3352 13.15V14.32C90.8552 13.68 91.5252 13.15 92.3452 12.73C93.1652 12.31 94.1652 12.1 95.3452 12.1C96.5252 12.1 97.5552 12.37 98.4352 12.91C99.3352 13.43 100.035 14.2 100.535 15.22C101.055 16.22 101.315 17.44 101.315 18.88V27.25C101.315 27.47 101.235 27.65 101.075 27.79C100.935 27.93 100.765 28 100.565 28H97.3852C97.1652 28 96.9852 27.93 96.8452 27.79C96.7052 27.65 96.6352 27.47 96.6352 27.25V19.06C96.6352 18 96.3752 17.18 95.8552 16.6C95.3552 16 94.6152 15.7 93.6352 15.7C92.6952 15.7 91.9452 16 91.3852 16.6C90.8252 17.18 90.5452 18 90.5452 19.06V27.25C90.5452 27.47 90.4752 27.65 90.3352 27.79C90.1952 27.93 90.0252 28 89.8252 28H86.6452ZM111.06 28.3C109.82 28.3 108.75 28.16 107.85 27.88C106.97 27.58 106.25 27.22 105.69 26.8C105.15 26.38 104.74 25.96 104.46 25.54C104.2 25.1 104.06 24.73 104.04 24.43C104.02 24.21 104.09 24.03 104.25 23.89C104.41 23.75 104.57 23.68 104.73 23.68H107.64C107.7 23.68 107.76 23.69 107.82 23.71C107.88 23.73 107.94 23.78 108 23.86C108.26 24.04 108.53 24.25 108.81 24.49C109.09 24.71 109.41 24.9 109.77 25.06C110.15 25.22 110.62 25.3 111.18 25.3C111.84 25.3 112.4 25.17 112.86 24.91C113.32 24.63 113.55 24.24 113.55 23.74C113.55 23.38 113.44 23.08 113.22 22.84C113.02 22.6 112.63 22.38 112.05 22.18C111.47 21.98 110.61 21.76 109.47 21.52C108.39 21.28 107.47 20.96 106.71 20.56C105.95 20.16 105.38 19.66 105 19.06C104.62 18.44 104.43 17.7 104.43 16.84C104.43 16.06 104.67 15.31 105.15 14.59C105.65 13.87 106.38 13.28 107.34 12.82C108.3 12.34 109.5 12.1 110.94 12.1C112.04 12.1 113 12.24 113.82 12.52C114.66 12.78 115.36 13.12 115.92 13.54C116.48 13.94 116.9 14.36 117.18 14.8C117.48 15.22 117.64 15.59 117.66 15.91C117.68 16.11 117.62 16.28 117.48 16.42C117.34 16.56 117.18 16.63 117 16.63H114.33C114.23 16.63 114.14 16.62 114.06 16.6C113.98 16.56 113.91 16.51 113.85 16.45C113.61 16.29 113.36 16.11 113.1 15.91C112.86 15.69 112.57 15.5 112.23 15.34C111.89 15.18 111.45 15.1 110.91 15.1C110.25 15.1 109.74 15.25 109.38 15.55C109.04 15.83 108.87 16.19 108.87 16.63C108.87 16.91 108.96 17.17 109.14 17.41C109.32 17.65 109.69 17.87 110.25 18.07C110.81 18.27 111.66 18.48 112.8 18.7C114.16 18.94 115.24 19.3 116.04 19.78C116.84 20.26 117.41 20.82 117.75 21.46C118.11 22.08 118.29 22.75 118.29 23.47C118.29 24.41 118.01 25.25 117.45 25.99C116.89 26.71 116.07 27.28 114.99 27.7C113.93 28.1 112.62 28.3 111.06 28.3ZM121.889 28C121.689 28 121.519 27.93 121.379 27.79C121.239 27.65 121.169 27.47 121.169 27.25V13.15C121.169 12.93 121.239 12.75 121.379 12.61C121.519 12.47 121.689 12.4 121.889 12.4H124.889C125.109 12.4 125.289 12.47 125.429 12.61C125.569 12.75 125.639 12.93 125.639 13.15V27.25C125.639 27.47 125.569 27.65 125.429 27.79C125.289 27.93 125.109 28 124.889 28H121.889ZM121.799 10C121.599 10 121.429 9.93 121.289 9.79C121.149 9.65 121.079 9.47 121.079 9.25V6.85C121.079 6.63 121.149 6.45 121.289 6.31C121.429 6.15 121.599 6.07 121.799 6.07H124.949C125.169 6.07 125.349 6.15 125.489 6.31C125.649 6.45 125.729 6.63 125.729 6.85V9.25C125.729 9.47 125.649 9.65 125.489 9.79C125.349 9.93 125.169 10 124.949 10H121.799ZM136.902 28C135.662 28 134.602 27.8 133.722 27.4C132.842 26.98 132.172 26.34 131.712 25.48C131.272 24.62 131.052 23.54 131.052 22.24V15.94H128.712C128.492 15.94 128.312 15.87 128.172 15.73C128.032 15.59 127.962 15.41 127.962 15.19V13.15C127.962 12.93 128.032 12.75 128.172 12.61C128.312 12.47 128.492 12.4 128.712 12.4H131.052V7.45C131.052 7.23 131.122 7.05 131.262 6.91C131.422 6.77 131.602 6.7 131.802 6.7H134.742C134.962 6.7 135.142 6.77 135.282 6.91C135.422 7.05 135.492 7.23 135.492 7.45V12.4H139.242C139.442 12.4 139.612 12.47 139.752 12.61C139.892 12.75 139.962 12.93 139.962 13.15V15.19C139.962 15.41 139.892 15.59 139.752 15.73C139.612 15.87 139.442 15.94 139.242 15.94H135.492V21.88C135.492 22.64 135.622 23.24 135.882 23.68C136.162 24.1 136.642 24.31 137.322 24.31H139.512C139.712 24.31 139.882 24.38 140.022 24.52C140.162 24.66 140.232 24.83 140.232 25.03V27.25C140.232 27.47 140.162 27.65 140.022 27.79C139.882 27.93 139.712 28 139.512 28H136.902ZM143.929 28C143.709 28 143.529 27.93 143.389 27.79C143.249 27.65 143.179 27.47 143.179 27.25V7.75C143.179 7.53 143.249 7.35 143.389 7.21C143.529 7.07 143.709 7 143.929 7H157.309C157.529 7 157.709 7.07 157.849 7.21C157.989 7.35 158.059 7.53 158.059 7.75V10.3C158.059 10.52 157.989 10.7 157.849 10.84C157.709 10.98 157.529 11.05 157.309 11.05H147.859V16.12H156.709C156.929 16.12 157.109 16.19 157.249 16.33C157.389 16.47 157.459 16.65 157.459 16.87V19.42C157.459 19.62 157.389 19.79 157.249 19.93C157.109 20.07 156.929 20.14 156.709 20.14H147.859V27.25C147.859 27.47 147.789 27.65 147.649 27.79C147.509 27.93 147.329 28 147.109 28H143.929ZM161.88 28C161.66 28 161.48 27.93 161.34 27.79C161.2 27.65 161.13 27.47 161.13 27.25V7.45C161.13 7.23 161.2 7.05 161.34 6.91C161.48 6.77 161.66 6.7 161.88 6.7H164.88C165.08 6.7 165.25 6.77 165.39 6.91C165.53 7.05 165.6 7.23 165.6 7.45V27.25C165.6 27.47 165.53 27.65 165.39 27.79C165.25 27.93 165.08 28 164.88 28H161.88ZM176.532 28.3C174.872 28.3 173.482 28.03 172.362 27.49C171.242 26.93 170.382 26.14 169.782 25.12C169.202 24.1 168.882 22.91 168.822 21.55C168.802 21.15 168.792 20.7 168.792 20.2C168.792 19.68 168.802 19.23 168.822 18.85C168.882 17.47 169.222 16.28 169.842 15.28C170.462 14.26 171.332 13.48 172.452 12.94C173.572 12.38 174.932 12.1 176.532 12.1C178.112 12.1 179.462 12.38 180.582 12.94C181.702 13.48 182.572 14.26 183.192 15.28C183.812 16.28 184.152 17.47 184.212 18.85C184.252 19.23 184.272 19.68 184.272 20.2C184.272 20.7 184.252 21.15 184.212 21.55C184.152 22.91 183.822 24.1 183.222 25.12C182.642 26.14 181.792 26.93 180.672 27.49C179.552 28.03 178.172 28.3 176.532 28.3ZM176.532 25C177.512 25 178.252 24.7 178.752 24.1C179.252 23.48 179.522 22.58 179.562 21.4C179.582 21.1 179.592 20.7 179.592 20.2C179.592 19.7 179.582 19.3 179.562 19C179.522 17.84 179.252 16.95 178.752 16.33C178.252 15.71 177.512 15.4 176.532 15.4C175.552 15.4 174.802 15.71 174.282 16.33C173.782 16.95 173.512 17.84 173.472 19C173.452 19.3 173.442 19.7 173.442 20.2C173.442 20.7 173.452 21.1 173.472 21.4C173.512 22.58 173.782 23.48 174.282 24.1C174.802 24.7 175.552 25 176.532 25ZM191.26 28C190.98 28 190.76 27.93 190.6 27.79C190.46 27.65 190.35 27.47 190.27 27.25L185.98 13.36C185.94 13.26 185.92 13.16 185.92 13.06C185.92 12.88 185.98 12.73 186.1 12.61C186.24 12.47 186.4 12.4 186.58 12.4H189.22C189.48 12.4 189.68 12.47 189.82 12.61C189.96 12.75 190.05 12.88 190.09 13L192.82 22.27L195.73 13.06C195.77 12.92 195.86 12.78 196 12.64C196.16 12.48 196.38 12.4 196.66 12.4H198.37C198.65 12.4 198.86 12.48 199 12.64C199.16 12.78 199.26 12.92 199.3 13.06L202.21 22.27L204.94 13C204.96 12.88 205.04 12.75 205.18 12.61C205.34 12.47 205.54 12.4 205.78 12.4H208.42C208.6 12.4 208.75 12.47 208.87 12.61C209.01 12.73 209.08 12.88 209.08 13.06C209.08 13.16 209.07 13.26 209.05 13.36L204.73 27.25C204.67 27.47 204.56 27.65 204.4 27.79C204.26 27.93 204.05 28 203.77 28H201.46C201.18 28 200.96 27.93 200.8 27.79C200.64 27.65 200.52 27.47 200.44 27.25L197.53 18.37L194.56 27.25C194.5 27.47 194.39 27.65 194.23 27.79C194.07 27.93 193.85 28 193.57 28H191.26Z" fill="white"/>
<path d="M43.9709 11.17H44.9709V10.17H43.9709V11.17ZM38.0009 10.96L37.2938 11.6671L37.2938 11.6671L38.0009 10.96ZM38.0009 7.21L38.708 7.91711L38.708 7.9171L38.0009 7.21ZM54.7709 7.21L54.0637 7.9171L54.0638 7.91711L54.7709 7.21ZM48.8009 11.17V10.17H47.8009V11.17H48.8009ZM48.5909 27.79L47.8838 27.0829L48.5909 27.79ZM44.7209 27C44.7178 27 44.7428 26.9998 44.7833 27.0155C44.8258 27.032 44.8624 27.0574 44.888 27.0829L43.4738 28.4971C43.823 28.8463 44.2679 29 44.7209 29V27ZM44.888 27.0829C44.9135 27.1084 44.9388 27.145 44.9554 27.1876C44.9711 27.228 44.9709 27.2531 44.9709 27.25H42.9709C42.9709 27.7029 43.1245 28.1479 43.4738 28.4971L44.888 27.0829ZM44.9709 27.25V11.17H42.9709V27.25H44.9709ZM43.9709 10.17H38.5109V12.17H43.9709V10.17ZM38.5109 10.17C38.5299 10.17 38.5681 10.1739 38.6141 10.1928C38.6603 10.2119 38.6919 10.2368 38.708 10.2529L37.2938 11.6671C37.6234 11.9968 38.0487 12.17 38.5109 12.17V10.17ZM38.708 10.2529C38.7241 10.269 38.749 10.3005 38.768 10.3467C38.787 10.3928 38.7909 10.4309 38.7909 10.45H36.7909C36.7909 10.9122 36.9641 11.3374 37.2938 11.6671L38.708 10.2529ZM38.7909 10.45V7.75H36.7909V10.45H38.7909ZM38.7909 7.75C38.7909 7.7469 38.7911 7.77197 38.7754 7.81245C38.7588 7.85498 38.7335 7.89159 38.708 7.91711L37.2938 6.50289C36.9445 6.8521 36.7909 7.29708 36.7909 7.75H38.7909ZM38.708 7.9171C38.6919 7.93321 38.6603 7.95814 38.6141 7.97718C38.5681 7.99613 38.5299 8 38.5109 8V6C38.0487 6 37.6234 6.17323 37.2938 6.50289L38.708 7.9171ZM38.5109 8H54.2309V6H38.5109V8ZM54.2309 8C54.234 8 54.2089 8.00024 54.1684 7.9845C54.1259 7.96796 54.0893 7.94262 54.0637 7.9171L55.478 6.5029C55.1288 6.15369 54.6838 6 54.2309 6V8ZM54.0638 7.91711C54.0382 7.89159 54.0129 7.85498 53.9964 7.81245C53.9806 7.77197 53.9809 7.7469 53.9809 7.75H55.9809C55.9809 7.29708 55.8272 6.85209 55.478 6.50289L54.0638 7.91711ZM53.9809 7.75V10.45H55.9809V7.75H53.9809ZM53.9809 10.45C53.9809 10.4309 53.9847 10.3928 54.0037 10.3467C54.0227 10.3005 54.0477 10.269 54.0638 10.2529L55.478 11.6671C55.8076 11.3374 55.9809 10.9122 55.9809 10.45H53.9809ZM54.0638 10.2529C54.0893 10.2274 54.1259 10.202 54.1684 10.1855C54.2089 10.1698 54.234 10.17 54.2309 10.17V12.17C54.6838 12.17 55.1288 12.0163 55.478 11.6671L54.0638 10.2529ZM54.2309 10.17H48.8009V12.17H54.2309V10.17ZM47.8009 11.17V27.25H49.8009V11.17H47.8009ZM47.8009 27.25C47.8009 27.2531 47.8006 27.228 47.8164 27.1876C47.8329 27.145 47.8582 27.1084 47.8838 27.0829L49.298 28.4971C49.6472 28.1479 49.8009 27.7029 49.8009 27.25H47.8009ZM47.8838 27.0829C47.9093 27.0574 47.9459 27.032 47.9884 27.0155C48.0289 26.9998 48.054 27 48.0509 27V29C48.5038 29 48.9488 28.8463 49.298 28.4971L47.8838 27.0829ZM48.0509 27H44.7209V29H48.0509V27ZM55.9594 27.79L55.2523 28.4971L55.2523 28.4971L55.9594 27.79ZM55.9594 12.64L56.6665 13.3471L56.69 13.3236L56.712 13.2985L55.9594 12.64ZM59.9194 12.64L59.1668 13.2985L59.2107 13.3487L59.2609 13.3926L59.9194 12.64ZM60.1594 14.35H59.1594V17.183L60.9378 14.9778L60.1594 14.35ZM61.9894 12.91L61.5719 12.0013L61.5624 12.0058L61.9894 12.91ZM66.3394 12.61L65.6323 13.3171L65.6323 13.3171L66.3394 12.61ZM66.3394 16.27L65.6323 15.5629L65.6323 15.5629L66.3394 16.27ZM61.1194 17.23L61.8119 17.9514L61.8193 17.9443L61.8265 17.9371L61.1194 17.23ZM60.1594 27.79L59.4523 27.0829L60.1594 27.79ZM56.4694 27C56.4884 27 56.5266 27.0039 56.5726 27.0228C56.6188 27.0419 56.6504 27.0668 56.6665 27.0829L55.2523 28.4971C55.5819 28.8268 56.0072 29 56.4694 29V27ZM56.6665 27.0829C56.692 27.1084 56.7173 27.145 56.7339 27.1876C56.7496 27.228 56.7494 27.2531 56.7494 27.25H54.7494C54.7494 27.7029 54.9031 28.1479 55.2523 28.4971L56.6665 27.0829ZM56.7494 27.25V13.15H54.7494V27.25H56.7494ZM56.7494 13.15C56.7494 13.1691 56.7455 13.2072 56.7266 13.2532C56.7075 13.2995 56.6826 13.331 56.6665 13.3471L55.2523 11.9329C54.9226 12.2626 54.7494 12.6878 54.7494 13.15H56.7494ZM56.712 13.2985C56.7031 13.3086 56.6728 13.3389 56.6177 13.3648C56.561 13.3915 56.5069 13.4 56.4694 13.4V11.4C55.961 11.4 55.5231 11.62 55.2068 11.9815L56.712 13.2985ZM56.4694 13.4H59.4094V11.4H56.4694V13.4ZM59.4094 13.4C59.3719 13.4 59.3178 13.3915 59.2611 13.3648C59.2059 13.3389 59.1757 13.3086 59.1668 13.2985L60.672 11.9815C60.3556 11.62 59.9177 11.4 59.4094 11.4V13.4ZM59.2609 13.3926C59.2508 13.3837 59.2205 13.3534 59.1946 13.2983C59.1679 13.2416 59.1594 13.1875 59.1594 13.15H61.1594C61.1594 12.6417 60.9394 12.2037 60.5779 11.8874L59.2609 13.3926ZM59.1594 13.15V14.35H61.1594V13.15H59.1594ZM60.9378 14.9778C61.3431 14.4752 61.8329 14.0898 62.4164 13.8142L61.5624 12.0058C60.7058 12.4102 59.9757 12.9848 59.381 13.7222L60.9378 14.9778ZM62.4069 13.8187C62.9946 13.5487 63.698 13.4 64.5394 13.4V11.4C63.4608 11.4 62.4642 11.5913 61.5719 12.0013L62.4069 13.8187ZM64.5394 13.4H65.8294V11.4H64.5394V13.4ZM65.8294 13.4C65.8103 13.4 65.7721 13.3961 65.7261 13.3772C65.6799 13.3581 65.6484 13.3332 65.6323 13.3171L67.0465 11.9029C66.7168 11.5732 66.2916 11.4 65.8294 11.4V13.4ZM65.6323 13.3171C65.6067 13.2916 65.5814 13.255 65.5649 13.2124C65.5491 13.172 65.5494 13.1469 65.5494 13.15H67.5494C67.5494 12.6971 67.3957 12.2521 67.0465 11.9029L65.6323 13.3171ZM65.5494 13.15V15.73H67.5494V13.15H65.5494ZM65.5494 15.73C65.5494 15.7331 65.5491 15.708 65.5649 15.6676C65.5814 15.625 65.6067 15.5884 65.6323 15.5629L67.0465 16.9771C67.3957 16.6279 67.5494 16.1829 67.5494 15.73H65.5494ZM65.6323 15.5629C65.6484 15.5468 65.6799 15.5219 65.7261 15.5028C65.7721 15.4839 65.8103 15.48 65.8294 15.48V17.48C66.2916 17.48 66.7168 17.3068 67.0465 16.9771L65.6323 15.5629ZM65.8294 15.48H63.1894V17.48H65.8294V15.48ZM63.1894 15.48C62.1128 15.48 61.1433 15.7919 60.4123 16.5229L61.8265 17.9371C62.0954 17.6681 62.506 17.48 63.1894 17.48V15.48ZM60.4268 16.5086C59.6764 17.2291 59.3694 18.213 59.3694 19.3H61.3694C61.3694 18.587 61.5624 18.1909 61.8119 17.9514L60.4268 16.5086ZM59.3694 19.3V27.25H61.3694V19.3H59.3694ZM59.3694 27.25C59.3694 27.2531 59.3691 27.228 59.3849 27.1876C59.4014 27.145 59.4267 27.1084 59.4523 27.0829L60.8665 28.4971C61.2157 28.1479 61.3694 27.7029 61.3694 27.25H59.3694ZM59.4523 27.0829C59.4778 27.0574 59.5144 27.032 59.5569 27.0155C59.5974 26.9998 59.6225 27 59.6194 27V29C60.0723 29 60.5173 28.8463 60.8665 28.4971L59.4523 27.0829ZM59.6194 27H56.4694V29H59.6194V27ZM70.2628 27.7L69.8156 28.5944L69.8242 28.5987L69.8329 28.6029L70.2628 27.7ZM68.2528 26.02L67.4391 26.6012L67.4391 26.6012L68.2528 26.02ZM69.2128 20.32L68.6356 19.5034L68.6289 19.5082L69.2128 20.32ZM73.7728 18.64L73.6293 17.6504L73.6222 17.6514L73.6152 17.6525L73.7728 18.64ZM77.7028 18.07L77.8463 19.0596L78.7028 18.9354V18.07H77.7028ZM73.6828 15.49L73.1378 14.6516L73.1378 14.6516L73.6828 15.49ZM72.7528 16.51L73.6045 17.0341L73.6226 17.0046L73.6386 16.974L72.7528 16.51ZM68.7028 16.72L67.9436 17.3708L67.9685 17.3999L67.9957 17.4271L68.7028 16.72ZM68.5528 16.24L69.5467 16.3504L69.5528 16.2954V16.24H68.5528ZM68.9428 15.04L69.8134 15.5321L69.8134 15.5321L68.9428 15.04ZM70.1428 13.69L70.7745 14.4652L70.783 14.4583L70.7913 14.4512L70.1428 13.69ZM72.2128 12.55L71.8765 11.6083L71.8765 11.6083L72.2128 12.55ZM78.5428 12.55L78.859 11.6013L78.859 11.6013L78.5428 12.55ZM81.9028 15.7L80.9622 16.0397L80.9654 16.0482L81.9028 15.7ZM82.0828 27.79L82.7899 28.4971L82.7899 28.4971L82.0828 27.79ZM77.8828 26.14H78.8828V22.9076L77.0575 25.5753L77.8828 26.14ZM76.8328 27.22L77.421 28.0287L77.4327 28.0202L77.4443 28.0113L76.8328 27.22ZM75.2428 28L74.9358 27.0482L74.9266 27.0513L75.2428 28ZM76.0828 24.76L76.5569 25.6405L76.5569 25.6405L76.0828 24.76ZM77.3128 23.47L76.4246 23.0106L76.4246 23.0106L77.3128 23.47ZM77.7628 20.77H78.7628V19.5958L77.6036 19.7828L77.7628 20.77ZM74.9728 21.22L74.8136 20.2327L74.8084 20.2336L74.9728 21.22ZM72.6028 22.03L72.0185 21.2185L72.0185 21.2185L72.6028 22.03ZM72.1828 24.34L71.3965 24.9578L71.4097 24.9746L71.4236 24.9908L72.1828 24.34ZM73.1128 24.97L72.7671 25.9083L72.7671 25.9083L73.1128 24.97ZM73.1128 27.3C72.1808 27.3 71.3809 27.1248 70.6927 26.7971L69.8329 28.6029C70.8247 29.0752 71.9248 29.3 73.1128 29.3V27.3ZM70.71 26.8056C70.0022 26.4517 69.4632 25.9941 69.0665 25.4388L67.4391 26.6012C68.0424 27.4459 68.8434 28.1083 69.8156 28.5944L70.71 26.8056ZM69.0665 25.4388C68.6877 24.9083 68.5028 24.3315 68.5028 23.68H66.5028C66.5028 24.7485 66.818 25.7317 67.4391 26.6012L69.0665 25.4388ZM68.5028 23.68C68.5028 22.5775 68.9214 21.7614 69.7967 21.1318L68.6289 19.5082C67.2242 20.5186 66.5028 21.9425 66.5028 23.68H68.5028ZM69.79 21.1366C70.7901 20.4297 72.1525 19.9112 73.9304 19.6275L73.6152 17.6525C71.6331 17.9688 69.9556 18.5703 68.6356 19.5034L69.79 21.1366ZM73.9163 19.6296L77.8463 19.0596L77.5593 17.0804L73.6293 17.6504L73.9163 19.6296ZM78.7028 18.07V17.53H76.7028V18.07H78.7028ZM78.7028 17.53C78.7028 16.6082 78.4906 15.7425 77.9221 15.0792L76.4036 16.3808C76.555 16.5575 76.7028 16.8918 76.7028 17.53H78.7028ZM77.9221 15.0792C77.2803 14.3304 76.2855 14.1 75.2728 14.1V16.1C76.0601 16.1 76.3254 16.2896 76.4036 16.3808L77.9221 15.0792ZM75.2728 14.1C74.4909 14.1 73.7511 14.2529 73.1378 14.6516L74.2278 16.3284C74.4145 16.2071 74.7347 16.1 75.2728 16.1V14.1ZM73.1378 14.6516C72.5949 15.0045 72.1671 15.473 71.867 16.046L73.6386 16.974C73.7785 16.707 73.9707 16.4955 74.2278 16.3284L73.1378 14.6516ZM71.9012 15.9859C71.8959 15.9945 71.9145 15.9623 71.9683 15.9319C72.0228 15.9011 72.0641 15.9 72.0628 15.9V17.9C72.7175 17.9 73.2664 17.5835 73.6045 17.0341L71.9012 15.9859ZM72.0628 15.9H69.2128V17.9H72.0628V15.9ZM69.2128 15.9C69.1921 15.9 69.2106 15.897 69.2531 15.912C69.3 15.9285 69.3578 15.9608 69.4099 16.0129L67.9957 17.4271C68.3542 17.7856 68.8096 17.9 69.2128 17.9V15.9ZM69.4621 16.0692C69.4815 16.0919 69.5104 16.1348 69.5298 16.1967C69.5493 16.2591 69.5507 16.3141 69.5467 16.3504L67.5589 16.1296C67.5077 16.5905 67.647 17.0248 67.9436 17.3708L69.4621 16.0692ZM69.5528 16.24C69.5528 16.1425 69.5954 15.9177 69.8134 15.5321L68.0722 14.5479C67.7702 15.0823 67.5528 15.6575 67.5528 16.24H69.5528ZM69.8134 15.5321C69.996 15.209 70.302 14.8502 70.7745 14.4652L69.5111 12.9148C68.9036 13.4098 68.4096 13.951 68.0722 14.5479L69.8134 15.5321ZM70.7913 14.4512C71.2187 14.0871 71.7951 13.7611 72.5491 13.4917L71.8765 11.6083C70.9506 11.9389 70.1469 12.3729 69.4943 12.9288L70.7913 14.4512ZM72.5491 13.4917C73.2496 13.2416 74.1582 13.1 75.3028 13.1V11.1C74.0074 11.1 72.856 11.2584 71.8765 11.6083L72.5491 13.4917ZM75.3028 13.1C76.4884 13.1 77.4558 13.2418 78.2266 13.4987L78.859 11.6013C77.8298 11.2582 76.6372 11.1 75.3028 11.1V13.1ZM78.2266 13.4987C79.0142 13.7612 79.5888 14.1102 79.9957 14.5171L81.4099 13.1029C80.7368 12.4298 79.8714 11.9388 78.859 11.6013L78.2266 13.4987ZM79.9957 14.5171C80.4316 14.953 80.752 15.4574 80.9623 16.0396L82.8434 15.3604C82.5336 14.5026 82.054 13.747 81.4099 13.1029L79.9957 14.5171ZM80.9654 16.0482C81.1801 16.6263 81.2928 17.2672 81.2928 17.98H83.2928C83.2928 17.0528 83.1455 16.1737 82.8402 15.3518L80.9654 16.0482ZM81.2928 17.98V27.25H83.2928V17.98H81.2928ZM81.2928 27.25C81.2928 27.2531 81.2926 27.228 81.3083 27.1876C81.3248 27.145 81.3502 27.1084 81.3757 27.0829L82.7899 28.4971C83.1391 28.1479 83.2928 27.7029 83.2928 27.25H81.2928ZM81.3757 27.0829C81.4012 27.0574 81.4378 27.032 81.4804 27.0155C81.5208 26.9998 81.5459 27 81.5428 27V29C81.9957 29 82.4407 28.8463 82.7899 28.4971L81.3757 27.0829ZM81.5428 27H78.6028V29H81.5428V27ZM78.6028 27C78.6219 27 78.66 27.0039 78.7061 27.0228C78.7523 27.0419 78.7838 27.0668 78.7999 27.0829L77.3857 28.4971C77.7154 28.8268 78.1406 29 78.6028 29V27ZM78.7999 27.0829C78.8254 27.1084 78.8508 27.145 78.8673 27.1876C78.8831 27.228 78.8828 27.2531 78.8828 27.25H76.8828C76.8828 27.7029 77.0365 28.1479 77.3857 28.4971L78.7999 27.0829ZM78.8828 27.25V26.14H76.8828V27.25H78.8828ZM77.0575 25.5753C76.8673 25.8533 76.5953 26.1398 76.2214 26.4287L77.4443 28.0113C77.9504 27.6202 78.3783 27.1867 78.7081 26.7047L77.0575 25.5753ZM76.2446 26.4113C75.9052 26.6581 75.4744 26.8746 74.9358 27.0483L75.5498 28.9517C76.2512 28.7254 76.8805 28.4219 77.421 28.0287L76.2446 26.4113ZM74.9266 27.0513C74.4537 27.209 73.8555 27.3 73.1128 27.3V29.3C74.0102 29.3 74.832 29.191 75.559 28.9487L74.9266 27.0513ZM74.3128 26.18C75.1185 26.18 75.8747 26.0078 76.5569 25.6405L75.6087 23.8795C75.2509 24.0722 74.8271 24.18 74.3128 24.18V26.18ZM76.5569 25.6405C77.2728 25.255 77.8187 24.6686 78.201 23.9294L76.4246 23.0106C76.2069 23.4314 75.9329 23.705 75.6087 23.8795L76.5569 25.6405ZM78.201 23.9294C78.5955 23.1668 78.7628 22.2668 78.7628 21.28H76.7628C76.7628 22.0532 76.6301 22.6132 76.4246 23.0106L78.201 23.9294ZM78.7628 21.28V20.77H76.7628V21.28H78.7628ZM77.6036 19.7828L74.8136 20.2328L75.132 22.2072L77.922 21.7572L77.6036 19.7828ZM74.8084 20.2336C73.6773 20.4221 72.7055 20.7238 72.0185 21.2185L73.1871 22.8415C73.5001 22.6162 74.1084 22.3779 75.1372 22.2064L74.8084 20.2336ZM72.0185 21.2185C71.3124 21.7269 70.8528 22.4463 70.8528 23.35H72.8528C72.8528 23.2137 72.8933 23.0531 73.1871 22.8415L72.0185 21.2185ZM70.8528 23.35C70.8528 23.938 71.0284 24.4894 71.3965 24.9578L72.9691 23.7222C72.8972 23.6306 72.8528 23.522 72.8528 23.35H70.8528ZM71.4236 24.9908C71.7853 25.4128 72.2431 25.7153 72.7671 25.9083L73.4585 24.0317C73.2225 23.9447 73.0604 23.8272 72.9421 23.6892L71.4236 24.9908ZM72.7671 25.9083C73.2619 26.0906 73.7793 26.18 74.3128 26.18V24.18C74.0063 24.18 73.7237 24.1294 73.4585 24.0317L72.7671 25.9083ZM86.1352 27.79L85.428 28.4971L85.428 28.4971L86.1352 27.79ZM86.1352 12.61L86.8423 13.3171L86.8423 13.3171L86.1352 12.61ZM90.1252 12.61L89.418 13.3171L89.4181 13.3171L90.1252 12.61ZM90.3352 14.32H89.3352V17.1366L91.1113 14.9506L90.3352 14.32ZM92.3452 12.73L92.801 13.62L92.801 13.62L92.3452 12.73ZM98.4352 12.91L97.9121 13.7623L97.9234 13.7692L97.9349 13.7759L98.4352 12.91ZM100.535 15.22L99.6372 15.6602L99.6425 15.6708L99.6479 15.6814L100.535 15.22ZM101.075 27.79L100.417 27.0374L100.392 27.0593L100.368 27.0829L101.075 27.79ZM95.8552 16.6L95.0869 17.2402L95.0985 17.2541L95.1106 17.2675L95.8552 16.6ZM91.3852 16.6L92.1046 17.2946L92.1104 17.2885L92.1162 17.2823L91.3852 16.6ZM90.3352 27.79L89.628 27.0829L90.3352 27.79ZM86.6452 27C86.6642 27 86.7024 27.0039 86.7484 27.0228C86.7946 27.0419 86.8262 27.0668 86.8423 27.0829L85.428 28.4971C85.7577 28.8268 86.183 29 86.6452 29V27ZM86.8423 27.0829C86.8678 27.1084 86.8931 27.145 86.9097 27.1876C86.9254 27.228 86.9252 27.2531 86.9252 27.25H84.9252C84.9252 27.7029 85.0788 28.1479 85.428 28.4971L86.8423 27.0829ZM86.9252 27.25V13.15H84.9252V27.25H86.9252ZM86.9252 13.15C86.9252 13.1469 86.9254 13.172 86.9097 13.2124C86.8931 13.255 86.8678 13.2916 86.8423 13.3171L85.4281 11.9029C85.0788 12.2521 84.9252 12.6971 84.9252 13.15H86.9252ZM86.8423 13.3171C86.8262 13.3332 86.7946 13.3581 86.7484 13.3772C86.7024 13.3961 86.6642 13.4 86.6452 13.4V11.4C86.183 11.4 85.7577 11.5732 85.428 11.9029L86.8423 13.3171ZM86.6452 13.4H89.5852V11.4H86.6452V13.4ZM89.5852 13.4C89.5883 13.4 89.5632 13.4002 89.5227 13.3845C89.4802 13.368 89.4436 13.3426 89.418 13.3171L90.8323 11.9029C90.4831 11.5537 90.0381 11.4 89.5852 11.4V13.4ZM89.4181 13.3171C89.3925 13.2916 89.3672 13.255 89.3507 13.2124C89.3349 13.172 89.3352 13.1469 89.3352 13.15H91.3352C91.3352 12.6971 91.1815 12.2521 90.8323 11.9029L89.4181 13.3171ZM89.3352 13.15V14.32H91.3352V13.15H89.3352ZM91.1113 14.9506C91.534 14.4304 92.0901 13.9842 92.801 13.62L91.8893 11.84C90.9602 12.3158 90.1764 12.9296 89.559 13.6894L91.1113 14.9506ZM92.801 13.62C93.4459 13.2897 94.2805 13.1 95.3452 13.1V11.1C94.0498 11.1 92.8844 11.3303 91.8893 11.84L92.801 13.62ZM95.3452 13.1C96.3675 13.1 97.211 13.3321 97.9121 13.7623L98.9582 12.0577C97.8993 11.4079 96.6828 11.1 95.3452 11.1V13.1ZM97.9349 13.7759C98.6471 14.1874 99.2161 14.8011 99.6372 15.6602L101.433 14.7798C100.854 13.5989 100.023 12.6726 98.9354 12.0441L97.9349 13.7759ZM99.6479 15.6814C100.076 16.5048 100.315 17.5572 100.315 18.88H102.315C102.315 17.3228 102.034 15.9352 101.422 14.7586L99.6479 15.6814ZM100.315 18.88V27.25H102.315V18.88H100.315ZM100.315 27.25C100.315 27.2365 100.318 27.1959 100.341 27.1439C100.365 27.0909 100.396 27.0553 100.417 27.0374L101.734 28.5426C102.119 28.2053 102.315 27.7469 102.315 27.25H100.315ZM100.368 27.0829C100.384 27.0668 100.416 27.0419 100.462 27.0228C100.508 27.0039 100.546 27 100.565 27V29C101.027 29 101.453 28.8268 101.782 28.4971L100.368 27.0829ZM100.565 27H97.3852V29H100.565V27ZM97.3852 27C97.3821 27 97.4071 26.9998 97.4476 27.0155C97.4901 27.032 97.5267 27.0574 97.5523 27.0829L96.138 28.4971C96.4873 28.8463 96.9322 29 97.3852 29V27ZM97.5523 27.0829C97.5778 27.1084 97.6031 27.145 97.6197 27.1876C97.6354 27.228 97.6352 27.2531 97.6352 27.25H95.6352C95.6352 27.7029 95.7888 28.1479 96.138 28.4971L97.5523 27.0829ZM97.6352 27.25V19.06H95.6352V27.25H97.6352ZM97.6352 19.06C97.6352 17.8433 97.3356 16.7532 96.5997 15.9325L95.1106 17.2675C95.4147 17.6068 95.6352 18.1567 95.6352 19.06H97.6352ZM96.6234 15.9598C95.8864 15.0754 94.8297 14.7 93.6352 14.7V16.7C94.4006 16.7 94.8239 16.9246 95.0869 17.2402L96.6234 15.9598ZM93.6352 14.7C92.4622 14.7 91.4314 15.0848 90.6541 15.9177L92.1162 17.2823C92.4589 16.9152 92.9281 16.7 93.6352 16.7V14.7ZM90.6658 15.9054C89.8747 16.7247 89.5452 17.8251 89.5452 19.06H91.5452C91.5452 18.1749 91.7756 17.6353 92.1046 17.2946L90.6658 15.9054ZM89.5452 19.06V27.25H91.5452V19.06H89.5452ZM89.5452 27.25C89.5452 27.2531 89.5449 27.228 89.5607 27.1876C89.5772 27.145 89.6025 27.1084 89.628 27.0829L91.0423 28.4971C91.3915 28.1479 91.5452 27.7029 91.5452 27.25H89.5452ZM89.628 27.0829C89.6442 27.0668 89.6757 27.0419 89.7219 27.0228C89.7679 27.0039 89.8061 27 89.8252 27V29C90.2873 29 90.7126 28.8268 91.0423 28.4971L89.628 27.0829ZM89.8252 27H86.6452V29H89.8252V27ZM107.85 27.88L107.527 28.8265L107.54 28.8309L107.552 28.8349L107.85 27.88ZM105.69 26.8L105.076 27.5894L105.083 27.5947L105.09 27.6L105.69 26.8ZM104.46 25.54L103.599 26.0487L103.612 26.0721L103.627 26.0947L104.46 25.54ZM104.04 24.43L105.037 24.3635L105.037 24.3515L105.035 24.3395L104.04 24.43ZM104.25 23.89L104.908 24.6426L104.25 23.89ZM107.82 23.71L108.136 22.7613L108.136 22.7613L107.82 23.71ZM108 23.86L107.2 24.46L107.297 24.5898L107.43 24.6822L108 23.86ZM108.81 24.49L108.159 25.2493L108.175 25.2631L108.192 25.2763L108.81 24.49ZM109.77 25.06L109.363 25.9738L109.372 25.9778L109.381 25.9816L109.77 25.06ZM112.86 24.91L113.352 25.7806L113.366 25.7726L113.379 25.7642L112.86 24.91ZM113.22 22.84L112.451 23.4802L112.466 23.4983L112.482 23.5157L113.22 22.84ZM112.05 22.18L111.724 23.1254L111.724 23.1254L112.05 22.18ZM109.47 21.52L109.253 22.4962L109.264 22.4985L109.47 21.52ZM106.71 20.56L106.244 21.4449L106.244 21.4449L106.71 20.56ZM105 19.06L104.147 19.5826L104.151 19.5888L104.155 19.5951L105 19.06ZM105.15 14.59L104.328 14.0196L104.323 14.0274L104.317 14.0353L105.15 14.59ZM107.34 12.82L107.772 13.7218L107.779 13.7182L107.787 13.7144L107.34 12.82ZM113.82 12.52L113.496 13.4663L113.51 13.471L113.524 13.4753L113.82 12.52ZM115.92 13.54L115.32 14.34L115.329 14.347L115.338 14.3537L115.92 13.54ZM117.18 14.8L116.336 15.3369L116.35 15.3595L116.366 15.3812L117.18 14.8ZM117.66 15.91L116.661 15.9724L116.663 15.991L116.664 16.0095L117.66 15.91ZM114.06 16.6L113.612 17.4944L113.71 17.5435L113.817 17.5701L114.06 16.6ZM113.85 16.45L114.557 15.7429L114.487 15.6729L114.404 15.6179L113.85 16.45ZM113.1 15.91L112.424 16.6472L112.456 16.6763L112.49 16.7026L113.1 15.91ZM109.38 15.55L110.015 16.3219L110.02 16.3182L109.38 15.55ZM110.25 18.07L110.586 17.1283L110.586 17.1283L110.25 18.07ZM112.8 18.7L112.61 19.6819L112.618 19.6834L112.626 19.6848L112.8 18.7ZM116.04 19.78L116.554 18.9225L116.554 18.9225L116.04 19.78ZM117.75 21.46L116.866 21.9292L116.875 21.9458L116.885 21.9621L117.75 21.46ZM117.45 25.99L118.239 26.604L118.247 26.5934L117.45 25.99ZM114.99 27.7L115.343 28.6356L115.352 28.632L114.99 27.7ZM111.06 27.3C109.89 27.3 108.926 27.1675 108.147 26.9251L107.552 28.8349C108.573 29.1525 109.749 29.3 111.06 29.3V27.3ZM108.172 26.9335C107.361 26.657 106.743 26.34 106.29 26L105.09 27.6C105.756 28.1 106.578 28.503 107.527 28.8265L108.172 26.9335ZM106.303 26.0106C105.82 25.6348 105.495 25.2904 105.292 24.9853L103.627 26.0947C103.984 26.6296 104.479 27.1252 105.076 27.5894L106.303 26.0106ZM105.32 25.0313C105.092 24.6439 105.042 24.4341 105.037 24.3635L103.042 24.4965C103.077 25.0259 103.308 25.5561 103.599 26.0487L105.32 25.0313ZM105.035 24.3395C105.037 24.3611 105.038 24.419 105.009 24.4924C104.98 24.5673 104.937 24.6174 104.908 24.6426L103.591 23.1374C103.179 23.4978 102.996 23.9964 103.044 24.5205L105.035 24.3395ZM104.908 24.6426C104.927 24.6259 104.922 24.6349 104.89 24.6487C104.856 24.6638 104.8 24.68 104.73 24.68V22.68C104.257 22.68 103.873 22.8911 103.591 23.1374L104.908 24.6426ZM104.73 24.68H107.64V22.68H104.73V24.68ZM107.64 24.68C107.586 24.68 107.54 24.6708 107.503 24.6587L108.136 22.7613C107.979 22.7092 107.813 22.68 107.64 22.68V24.68ZM107.503 24.6587C107.391 24.6212 107.313 24.5674 107.269 24.5307C107.226 24.4945 107.204 24.4657 107.2 24.46L108.8 23.26C108.683 23.1045 108.471 22.8731 108.136 22.7613L107.503 24.6587ZM107.43 24.6822C107.658 24.8397 107.901 25.0281 108.159 25.2493L109.46 23.7307C109.158 23.4719 108.861 23.2403 108.569 23.0378L107.43 24.6822ZM108.192 25.2763C108.543 25.5525 108.936 25.7837 109.363 25.9738L110.176 24.1462C109.883 24.0163 109.636 23.8675 109.427 23.7037L108.192 25.2763ZM109.381 25.9816C109.92 26.2083 110.531 26.3 111.18 26.3V24.3C110.708 24.3 110.379 24.2317 110.158 24.1384L109.381 25.9816ZM111.18 26.3C111.97 26.3 112.708 26.1441 113.352 25.7806L112.367 24.0394C112.091 24.1959 111.709 24.3 111.18 24.3V26.3ZM113.379 25.7642C114.11 25.3196 114.55 24.6203 114.55 23.74H112.55C112.55 23.8597 112.529 23.9404 112.34 24.0558L113.379 25.7642ZM114.55 23.74C114.55 23.1584 114.364 22.6088 113.957 22.1643L112.482 23.5157C112.515 23.5512 112.55 23.6016 112.55 23.74H114.55ZM113.988 22.1998C113.604 21.7392 112.991 21.4467 112.376 21.2346L111.724 23.1254C111.976 23.2123 112.159 23.2944 112.286 23.366C112.417 23.4401 112.455 23.4842 112.451 23.4802L113.988 22.1998ZM112.376 21.2346C111.736 21.014 110.827 20.7839 109.676 20.5415L109.264 22.4985C110.392 22.7361 111.203 22.946 111.724 23.1254L112.376 21.2346ZM109.686 20.5438C108.67 20.3178 107.838 20.0239 107.175 19.6751L106.244 21.4449C107.101 21.8961 108.109 22.2422 109.253 22.4962L109.686 20.5438ZM107.175 19.6751C106.538 19.3395 106.113 18.9491 105.844 18.5249L104.155 19.5951C104.646 20.3709 105.361 20.9805 106.244 21.4449L107.175 19.6751ZM105.852 18.5374C105.585 18.1014 105.43 17.5496 105.43 16.84H103.43C103.43 17.8504 103.654 18.7786 104.147 19.5826L105.852 18.5374ZM105.43 16.84C105.43 16.2787 105.599 15.7191 105.982 15.1447L104.317 14.0353C103.74 14.9009 103.43 15.8413 103.43 16.84H105.43ZM105.971 15.1604C106.353 14.6103 106.935 14.1229 107.772 13.7218L106.907 11.9182C105.825 12.4371 104.946 13.1297 104.328 14.0196L105.971 15.1604ZM107.787 13.7144C108.569 13.3234 109.604 13.1 110.94 13.1V11.1C109.395 11.1 108.03 11.3566 106.892 11.9256L107.787 13.7144ZM110.94 13.1C111.958 13.1 112.804 13.23 113.496 13.4663L114.143 11.5736C113.195 11.25 112.121 11.1 110.94 11.1V13.1ZM113.524 13.4753C114.281 13.7097 114.871 14.0039 115.32 14.34L116.52 12.74C115.848 12.2361 115.038 11.8503 114.115 11.5647L113.524 13.4753ZM115.338 14.3537C115.825 14.7017 116.143 15.0337 116.336 15.3369L118.023 14.2631C117.656 13.6863 117.134 13.1783 116.501 12.7263L115.338 14.3537ZM116.366 15.3812C116.617 15.7331 116.658 15.9208 116.661 15.9724L118.658 15.8476C118.621 15.2592 118.342 14.7069 117.993 14.2188L116.366 15.3812ZM116.664 16.0095C116.662 15.9802 116.662 15.9234 116.687 15.8547C116.711 15.7855 116.747 15.738 116.772 15.7129L118.187 17.1271C118.542 16.7713 118.704 16.3037 118.655 15.8105L116.664 16.0095ZM116.772 15.7129C116.779 15.7064 116.805 15.6825 116.854 15.6613C116.904 15.6393 116.956 15.63 117 15.63V17.63C117.473 17.63 117.88 17.4341 118.187 17.1271L116.772 15.7129ZM117 15.63H114.33V17.63H117V15.63ZM114.33 15.63C114.313 15.63 114.302 15.6291 114.297 15.6286C114.293 15.6281 114.295 15.628 114.302 15.6299L113.817 17.5701C113.991 17.6136 114.164 17.63 114.33 17.63V15.63ZM114.507 15.7056C114.518 15.711 114.537 15.7229 114.557 15.7429L113.142 17.1571C113.282 17.2971 113.441 17.409 113.612 17.4944L114.507 15.7056ZM114.404 15.6179C114.185 15.472 113.954 15.3054 113.709 15.1174L112.49 16.7026C112.765 16.9146 113.034 17.108 113.295 17.2821L114.404 15.6179ZM113.775 15.1728C113.45 14.8751 113.073 14.6317 112.655 14.4352L111.804 16.2448C112.066 16.3683 112.269 16.5049 112.424 16.6472L113.775 15.1728ZM112.655 14.4352C112.137 14.1913 111.537 14.1 110.91 14.1V16.1C111.362 16.1 111.642 16.1687 111.804 16.2448L112.655 14.4352ZM110.91 14.1C110.11 14.1 109.34 14.2811 108.739 14.7818L110.02 16.3182C110.139 16.2189 110.389 16.1 110.91 16.1V14.1ZM108.744 14.7781C108.173 15.2478 107.87 15.8908 107.87 16.63H109.87C109.87 16.4892 109.906 16.4122 110.015 16.3219L108.744 14.7781ZM107.87 16.63C107.87 17.1422 108.04 17.61 108.34 18.01L109.94 16.81C109.879 16.7299 109.87 16.6778 109.87 16.63H107.87ZM108.34 18.01C108.706 18.4987 109.319 18.7995 109.913 19.0117L110.586 17.1283C110.345 17.0424 110.176 16.9627 110.063 16.8955C109.945 16.8255 109.925 16.7904 109.94 16.81L108.34 18.01ZM109.913 19.0117C110.547 19.2381 111.458 19.4595 112.61 19.6819L112.989 17.7181C111.861 17.5005 111.072 17.3019 110.586 17.1283L109.913 19.0117ZM112.626 19.6848C113.918 19.9128 114.867 20.2429 115.525 20.6375L116.554 18.9225C115.612 18.3571 114.401 17.9672 112.973 17.7152L112.626 19.6848ZM115.525 20.6375C116.213 21.0504 116.633 21.4897 116.866 21.9292L118.633 20.9908C118.186 20.1503 117.466 19.4696 116.554 18.9225L115.525 20.6375ZM116.885 21.9621C117.156 22.4289 117.29 22.9256 117.29 23.47H119.29C119.29 22.5744 119.063 21.7311 118.614 20.9579L116.885 21.9621ZM117.29 23.47C117.29 24.1952 117.079 24.8227 116.652 25.3866L118.247 26.5934C118.94 25.6773 119.29 24.6248 119.29 23.47H117.29ZM116.66 25.3761C116.237 25.9197 115.584 26.396 114.627 26.768L115.352 28.632C116.556 28.164 117.542 27.5003 118.239 26.6039L116.66 25.3761ZM114.636 26.7644C113.723 27.1091 112.541 27.3 111.06 27.3V29.3C112.698 29.3 114.136 29.0909 115.343 28.6356L114.636 26.7644ZM121.379 27.79L120.672 28.4971L120.672 28.4971L121.379 27.79ZM121.379 12.61L122.086 13.3171L122.086 13.3171L121.379 12.61ZM125.429 12.61L124.722 13.3171L124.722 13.3171L125.429 12.61ZM125.429 27.79L124.722 27.0829L125.429 27.79ZM121.289 9.79L121.996 9.08289L121.996 9.08289L121.289 9.79ZM121.289 6.31L121.996 7.0171L122.02 6.99356L122.042 6.96851L121.289 6.31ZM125.489 6.31L124.737 6.96851L124.781 7.01868L124.831 7.06257L125.489 6.31ZM125.489 9.79L124.831 9.03742L124.806 9.05935L124.782 9.08289L125.489 9.79ZM121.889 27C121.908 27 121.947 27.0039 121.993 27.0228C122.039 27.0419 122.07 27.0668 122.086 27.0829L120.672 28.4971C121.002 28.8268 121.427 29 121.889 29V27ZM122.086 27.0829C122.112 27.1084 122.137 27.145 122.154 27.1876C122.17 27.228 122.169 27.2531 122.169 27.25H120.169C120.169 27.7029 120.323 28.1479 120.672 28.4971L122.086 27.0829ZM122.169 27.25V13.15H120.169V27.25H122.169ZM122.169 13.15C122.169 13.1469 122.17 13.172 122.154 13.2124C122.137 13.255 122.112 13.2916 122.086 13.3171L120.672 11.9029C120.323 12.2521 120.169 12.6971 120.169 13.15H122.169ZM122.086 13.3171C122.07 13.3332 122.039 13.3581 121.993 13.3772C121.947 13.3961 121.908 13.4 121.889 13.4V11.4C121.427 11.4 121.002 11.5732 120.672 11.9029L122.086 13.3171ZM121.889 13.4H124.889V11.4H121.889V13.4ZM124.889 13.4C124.892 13.4 124.867 13.4002 124.827 13.3845C124.784 13.368 124.748 13.3426 124.722 13.3171L126.136 11.9029C125.787 11.5537 125.342 11.4 124.889 11.4V13.4ZM124.722 13.3171C124.697 13.2916 124.671 13.255 124.655 13.2124C124.639 13.172 124.639 13.1469 124.639 13.15H126.639C126.639 12.6971 126.486 12.2521 126.136 11.9029L124.722 13.3171ZM124.639 13.15V27.25H126.639V13.15H124.639ZM124.639 27.25C124.639 27.2531 124.639 27.228 124.655 27.1876C124.671 27.145 124.697 27.1084 124.722 27.0829L126.136 28.4971C126.486 28.1479 126.639 27.7029 126.639 27.25H124.639ZM124.722 27.0829C124.748 27.0574 124.784 27.032 124.827 27.0155C124.867 26.9998 124.892 27 124.889 27V29C125.342 29 125.787 28.8463 126.136 28.4971L124.722 27.0829ZM124.889 27H121.889V29H124.889V27ZM121.799 9C121.818 9 121.857 9.00387 121.903 9.02282C121.949 9.04185 121.98 9.06679 121.996 9.08289L120.582 10.4971C120.912 10.8268 121.337 11 121.799 11V9ZM121.996 9.08289C122.022 9.10841 122.047 9.14502 122.064 9.18755C122.08 9.22803 122.079 9.2531 122.079 9.25H120.079C120.079 9.70292 120.233 10.1479 120.582 10.4971L121.996 9.08289ZM122.079 9.25V6.85H120.079V9.25H122.079ZM122.079 6.85C122.079 6.8469 122.08 6.87197 122.064 6.91245C122.047 6.95498 122.022 6.99158 121.996 7.0171L120.582 5.60289C120.233 5.9521 120.079 6.39708 120.079 6.85H122.079ZM122.042 6.96851C122.033 6.97862 122.003 7.00887 121.948 7.03482C121.891 7.0615 121.837 7.07 121.799 7.07V5.07C121.291 5.07 120.853 5.28998 120.537 5.65149L122.042 6.96851ZM121.799 7.07H124.949V5.07H121.799V7.07ZM124.949 7.07C124.936 7.07 124.895 7.06694 124.843 7.04381C124.79 7.02029 124.755 6.98894 124.737 6.96851L126.242 5.65149C125.905 5.266 125.446 5.07 124.949 5.07V7.07ZM124.831 7.06257C124.81 7.04469 124.779 7.00906 124.755 6.95614C124.732 6.90409 124.729 6.86351 124.729 6.85H126.729C126.729 6.35309 126.533 5.89473 126.148 5.55742L124.831 7.06257ZM124.729 6.85V9.25H126.729V6.85H124.729ZM124.729 9.25C124.729 9.23649 124.732 9.19591 124.755 9.14386C124.779 9.09093 124.81 9.0553 124.831 9.03742L126.148 10.5426C126.533 10.2053 126.729 9.7469 126.729 9.25H124.729ZM124.782 9.08289C124.808 9.05737 124.844 9.03204 124.887 9.01549C124.927 8.99975 124.952 9 124.949 9V11C125.402 11 125.847 10.8463 126.196 10.4971L124.782 9.08289ZM124.949 9H121.799V11H124.949V9ZM133.722 27.4L133.291 28.3025L133.299 28.3065L133.308 28.3104L133.722 27.4ZM131.712 25.48L130.821 25.9355L130.826 25.9436L130.83 25.9517L131.712 25.48ZM131.052 15.94H132.052V14.94H131.052V15.94ZM128.172 15.73L128.879 15.0229L128.879 15.0229L128.172 15.73ZM128.172 12.61L128.879 13.3171L128.879 13.3171L128.172 12.61ZM131.052 12.4V13.4H132.052V12.4H131.052ZM131.262 6.91L130.603 6.15742L130.578 6.17935L130.555 6.20289L131.262 6.91ZM135.282 6.91L134.575 7.61711L134.575 7.61711L135.282 6.91ZM135.492 12.4H134.492V13.4H135.492V12.4ZM139.752 12.61L139.045 13.3171L139.045 13.3171L139.752 12.61ZM135.492 15.94V14.94H134.492V15.94H135.492ZM135.882 23.68L135.021 24.1887L135.035 24.2121L135.05 24.2347L135.882 23.68ZM140.022 27.79L139.315 27.0829L140.022 27.79ZM136.902 27C135.766 27 134.854 26.8164 134.136 26.4896L133.308 28.3104C134.349 28.7836 135.558 29 136.902 29V27ZM134.152 26.4975C133.465 26.1694 132.953 25.6804 132.594 25.0083L130.83 25.9517C131.39 26.9996 132.219 27.7906 133.291 28.3025L134.152 26.4975ZM132.602 25.0245C132.255 24.3457 132.052 23.4339 132.052 22.24H130.052C130.052 23.6461 130.289 24.8943 130.821 25.9355L132.602 25.0245ZM132.052 22.24V15.94H130.052V22.24H132.052ZM131.052 14.94H128.712V16.94H131.052V14.94ZM128.712 14.94C128.709 14.94 128.734 14.9398 128.774 14.9555C128.817 14.972 128.853 14.9974 128.879 15.0229L127.465 16.4371C127.814 16.7863 128.259 16.94 128.712 16.94V14.94ZM128.879 15.0229C128.904 15.0484 128.93 15.085 128.946 15.1276C128.962 15.168 128.962 15.1931 128.962 15.19H126.962C126.962 15.6429 127.115 16.0879 127.465 16.4371L128.879 15.0229ZM128.962 15.19V13.15H126.962V15.19H128.962ZM128.962 13.15C128.962 13.1469 128.962 13.172 128.946 13.2124C128.93 13.255 128.904 13.2916 128.879 13.3171L127.465 11.9029C127.115 12.2521 126.962 12.6971 126.962 13.15H128.962ZM128.879 13.3171C128.853 13.3426 128.817 13.368 128.774 13.3845C128.734 13.4002 128.709 13.4 128.712 13.4V11.4C128.259 11.4 127.814 11.5537 127.465 11.9029L128.879 13.3171ZM128.712 13.4H131.052V11.4H128.712V13.4ZM132.052 12.4V7.45H130.052V12.4H132.052ZM132.052 7.45C132.052 7.4469 132.052 7.47197 132.036 7.51245C132.02 7.55498 131.994 7.59159 131.969 7.61711L130.555 6.20289C130.205 6.55209 130.052 6.99708 130.052 7.45H132.052ZM131.92 7.66258C131.922 7.66144 131.908 7.67332 131.879 7.6845C131.85 7.69604 131.821 7.7 131.802 7.7V5.7C131.343 5.7 130.933 5.86885 130.603 6.15742L131.92 7.66258ZM131.802 7.7H134.742V5.7H131.802V7.7ZM134.742 7.7C134.745 7.7 134.72 7.70025 134.679 7.6845C134.637 7.66796 134.6 7.64262 134.575 7.61711L135.989 6.20289C135.64 5.85369 135.195 5.7 134.742 5.7V7.7ZM134.575 7.61711C134.549 7.59159 134.524 7.55498 134.507 7.51245C134.491 7.47197 134.492 7.4469 134.492 7.45H136.492C136.492 6.99708 136.338 6.55209 135.989 6.20289L134.575 7.61711ZM134.492 7.45V12.4H136.492V7.45H134.492ZM135.492 13.4H139.242V11.4H135.492V13.4ZM139.242 13.4C139.223 13.4 139.184 13.3961 139.138 13.3772C139.092 13.3581 139.061 13.3332 139.045 13.3171L140.459 11.9029C140.129 11.5732 139.704 11.4 139.242 11.4V13.4ZM139.045 13.3171C139.019 13.2916 138.994 13.255 138.977 13.2124C138.961 13.172 138.962 13.1469 138.962 13.15H140.962C140.962 12.6971 140.808 12.2521 140.459 11.9029L139.045 13.3171ZM138.962 13.15V15.19H140.962V13.15H138.962ZM138.962 15.19C138.962 15.1931 138.961 15.168 138.977 15.1276C138.994 15.085 139.019 15.0484 139.045 15.0229L140.459 16.4371C140.808 16.0879 140.962 15.6429 140.962 15.19H138.962ZM139.045 15.0229C139.061 15.0068 139.092 14.9819 139.138 14.9628C139.184 14.9439 139.223 14.94 139.242 14.94V16.94C139.704 16.94 140.129 16.7668 140.459 16.4371L139.045 15.0229ZM139.242 14.94H135.492V16.94H139.242V14.94ZM134.492 15.94V21.88H136.492V15.94H134.492ZM134.492 21.88C134.492 22.7378 134.636 23.5373 135.021 24.1887L136.743 23.1713C136.608 22.9427 136.492 22.5422 136.492 21.88H134.492ZM135.05 24.2347C135.576 25.0249 136.436 25.31 137.322 25.31V23.31C136.848 23.31 136.747 23.1751 136.714 23.1253L135.05 24.2347ZM137.322 25.31H139.512V23.31H137.322V25.31ZM139.512 25.31C139.493 25.31 139.454 25.3061 139.408 25.2872C139.362 25.2681 139.331 25.2432 139.315 25.2271L140.729 23.8129C140.399 23.4832 139.974 23.31 139.512 23.31V25.31ZM139.315 25.2271C139.299 25.211 139.274 25.1795 139.255 25.1332C139.236 25.0872 139.232 25.0491 139.232 25.03H141.232C141.232 24.5678 141.058 24.1426 140.729 23.8129L139.315 25.2271ZM139.232 25.03V27.25H141.232V25.03H139.232ZM139.232 27.25C139.232 27.2531 139.231 27.228 139.247 27.1876C139.264 27.145 139.289 27.1084 139.315 27.0829L140.729 28.4971C141.078 28.1479 141.232 27.7029 141.232 27.25H139.232ZM139.315 27.0829C139.331 27.0668 139.362 27.0419 139.408 27.0228C139.454 27.0039 139.493 27 139.512 27V29C139.974 29 140.399 28.8268 140.729 28.4971L139.315 27.0829ZM139.512 27H136.902V29H139.512V27ZM143.389 27.79L142.682 28.4971L142.682 28.4971L143.389 27.79ZM143.389 7.21L144.096 7.91711L144.096 7.91711L143.389 7.21ZM157.849 7.21L157.142 7.9171L157.142 7.91711L157.849 7.21ZM157.849 10.84L157.142 10.1329L157.142 10.1329L157.849 10.84ZM147.859 11.05V10.05H146.859V11.05H147.859ZM147.859 16.12H146.859V17.12H147.859V16.12ZM157.249 16.33L157.956 15.6229L157.956 15.6229L157.249 16.33ZM157.249 19.93L157.956 20.6371L157.956 20.6371L157.249 19.93ZM147.859 20.14V19.14H146.859V20.14H147.859ZM147.649 27.79L146.942 27.0829L147.649 27.79ZM143.929 27C143.926 27 143.951 26.9998 143.991 27.0155C144.034 27.032 144.071 27.0574 144.096 27.0829L142.682 28.4971C143.031 28.8463 143.476 29 143.929 29V27ZM144.096 27.0829C144.122 27.1084 144.147 27.145 144.163 27.1876C144.179 27.228 144.179 27.2531 144.179 27.25H142.179C142.179 27.7029 142.333 28.1479 142.682 28.4971L144.096 27.0829ZM144.179 27.25V7.75H142.179V27.25H144.179ZM144.179 7.75C144.179 7.7469 144.179 7.77197 144.163 7.81245C144.147 7.85498 144.122 7.89159 144.096 7.91711L142.682 6.50289C142.333 6.8521 142.179 7.29708 142.179 7.75H144.179ZM144.096 7.91711C144.071 7.94262 144.034 7.96796 143.991 7.9845C143.951 8.00024 143.926 8 143.929 8V6C143.476 6 143.031 6.15369 142.682 6.50289L144.096 7.91711ZM143.929 8H157.309V6H143.929V8ZM157.309 8C157.312 8 157.287 8.00024 157.247 7.9845C157.204 7.96796 157.167 7.94262 157.142 7.9171L158.556 6.5029C158.207 6.15369 157.762 6 157.309 6V8ZM157.142 7.91711C157.116 7.89159 157.091 7.85498 157.074 7.81245C157.059 7.77197 157.059 7.7469 157.059 7.75H159.059C159.059 7.29708 158.905 6.85209 158.556 6.50289L157.142 7.91711ZM157.059 7.75V10.3H159.059V7.75H157.059ZM157.059 10.3C157.059 10.3031 157.059 10.278 157.074 10.2376C157.091 10.195 157.116 10.1584 157.142 10.1329L158.556 11.5471C158.905 11.1979 159.059 10.7529 159.059 10.3H157.059ZM157.142 10.1329C157.167 10.1074 157.204 10.082 157.247 10.0655C157.287 10.0498 157.312 10.05 157.309 10.05V12.05C157.762 12.05 158.207 11.8963 158.556 11.5471L157.142 10.1329ZM157.309 10.05H147.859V12.05H157.309V10.05ZM146.859 11.05V16.12H148.859V11.05H146.859ZM147.859 17.12H156.709V15.12H147.859V17.12ZM156.709 17.12C156.712 17.12 156.687 17.1202 156.647 17.1045C156.604 17.088 156.567 17.0626 156.542 17.0371L157.956 15.6229C157.607 15.2737 157.162 15.12 156.709 15.12V17.12ZM156.542 17.0371C156.516 17.0116 156.491 16.975 156.474 16.9324C156.459 16.892 156.459 16.8669 156.459 16.87H158.459C158.459 16.4171 158.305 15.9721 157.956 15.6229L156.542 17.0371ZM156.459 16.87V19.42H158.459V16.87H156.459ZM156.459 19.42C156.459 19.4009 156.463 19.3628 156.482 19.3168C156.501 19.2705 156.526 19.239 156.542 19.2229L157.956 20.6371C158.286 20.3074 158.459 19.8822 158.459 19.42H156.459ZM156.542 19.2229C156.567 19.1974 156.604 19.172 156.647 19.1555C156.687 19.1398 156.712 19.14 156.709 19.14V21.14C157.162 21.14 157.607 20.9863 157.956 20.6371L156.542 19.2229ZM156.709 19.14H147.859V21.14H156.709V19.14ZM146.859 20.14V27.25H148.859V20.14H146.859ZM146.859 27.25C146.859 27.2531 146.859 27.228 146.874 27.1876C146.891 27.145 146.916 27.1084 146.942 27.0829L148.356 28.4971C148.705 28.1479 148.859 27.7029 148.859 27.25H146.859ZM146.942 27.0829C146.967 27.0574 147.004 27.032 147.047 27.0155C147.087 26.9998 147.112 27 147.109 27V29C147.562 29 148.007 28.8463 148.356 28.4971L146.942 27.0829ZM147.109 27H143.929V29H147.109V27ZM161.34 27.79L160.633 28.4971L160.633 28.4971L161.34 27.79ZM161.34 6.91L162.047 7.61711L162.047 7.61711L161.34 6.91ZM165.39 6.91L164.683 7.61711L164.683 7.61711L165.39 6.91ZM165.39 27.79L164.683 27.0829L165.39 27.79ZM161.88 27C161.877 27 161.902 26.9998 161.943 27.0155C161.985 27.032 162.022 27.0574 162.047 27.0829L160.633 28.4971C160.982 28.8463 161.427 29 161.88 29V27ZM162.047 27.0829C162.073 27.1084 162.098 27.145 162.115 27.1876C162.13 27.228 162.13 27.2531 162.13 27.25H160.13C160.13 27.7029 160.284 28.1479 160.633 28.4971L162.047 27.0829ZM162.13 27.25V7.45H160.13V27.25H162.13ZM162.13 7.45C162.13 7.4469 162.13 7.47197 162.115 7.51245C162.098 7.55498 162.073 7.59159 162.047 7.61711L160.633 6.20289C160.284 6.55209 160.13 6.99708 160.13 7.45H162.13ZM162.047 7.61711C162.022 7.64262 161.985 7.66796 161.943 7.6845C161.902 7.70025 161.877 7.7 161.88 7.7V5.7C161.427 5.7 160.982 5.85369 160.633 6.20289L162.047 7.61711ZM161.88 7.7H164.88V5.7H161.88V7.7ZM164.88 7.7C164.861 7.7 164.823 7.69613 164.777 7.67718C164.731 7.65814 164.699 7.63321 164.683 7.61711L166.097 6.20289C165.768 5.87323 165.342 5.7 164.88 5.7V7.7ZM164.683 7.61711C164.658 7.59159 164.632 7.55498 164.616 7.51245C164.6 7.47197 164.6 7.4469 164.6 7.45H166.6C166.6 6.99708 166.447 6.55209 166.097 6.20289L164.683 7.61711ZM164.6 7.45V27.25H166.6V7.45H164.6ZM164.6 27.25C164.6 27.2531 164.6 27.228 164.616 27.1876C164.632 27.145 164.658 27.1084 164.683 27.0829L166.097 28.4971C166.447 28.1479 166.6 27.7029 166.6 27.25H164.6ZM164.683 27.0829C164.699 27.0668 164.731 27.0419 164.777 27.0228C164.823 27.0039 164.861 27 164.88 27V29C165.342 29 165.768 28.8268 166.097 28.4971L164.683 27.0829ZM164.88 27H161.88V29H164.88V27ZM172.362 27.49L171.915 28.3844L171.921 28.3876L171.928 28.3908L172.362 27.49ZM169.782 25.12L168.913 25.6143L168.916 25.6207L168.92 25.627L169.782 25.12ZM168.822 21.55L169.821 21.5059L169.821 21.5001L168.822 21.55ZM168.822 18.85L169.821 18.9026L169.821 18.8934L168.822 18.85ZM169.842 15.28L170.692 15.807L170.696 15.7994L169.842 15.28ZM172.452 12.94L172.886 13.8408L172.893 13.8376L172.899 13.8344L172.452 12.94ZM180.582 12.94L180.135 13.8344L180.141 13.8376L180.148 13.8408L180.582 12.94ZM183.192 15.28L182.337 15.7994L182.342 15.8069L183.192 15.28ZM184.212 18.85L183.213 18.8934L183.214 18.9241L183.217 18.9547L184.212 18.85ZM184.212 21.55L183.217 21.4505L183.214 21.4782L183.213 21.5059L184.212 21.55ZM183.222 25.12L182.36 24.613L182.356 24.6193L182.353 24.6257L183.222 25.12ZM180.672 27.49L181.106 28.3908L181.113 28.3876L181.119 28.3844L180.672 27.49ZM178.752 24.1L179.52 24.7402L179.525 24.734L179.53 24.7278L178.752 24.1ZM179.562 21.4L178.564 21.3335L178.563 21.3498L178.563 21.3661L179.562 21.4ZM179.562 19L178.563 19.0345L178.563 19.0505L178.564 19.0665L179.562 19ZM178.752 16.33L179.53 15.7022L179.53 15.7022L178.752 16.33ZM174.282 16.33L173.516 15.6874L173.51 15.6948L173.504 15.7022L174.282 16.33ZM173.472 19L174.47 19.0665L174.471 19.0505L174.471 19.0345L173.472 19ZM173.472 21.4L174.471 21.3661L174.471 21.3498L174.47 21.3335L173.472 21.4ZM174.282 24.1L173.504 24.7278L173.515 24.7415L173.526 24.7549L174.282 24.1ZM176.532 27.3C174.974 27.3 173.743 27.0459 172.796 26.5892L171.928 28.3908C173.221 29.0141 174.77 29.3 176.532 29.3V27.3ZM172.809 26.5956C171.851 26.1167 171.14 25.4566 170.644 24.613L168.92 25.627C169.624 26.8234 170.633 27.7433 171.915 28.3844L172.809 26.5956ZM170.651 24.6257C170.161 23.7639 169.875 22.7331 169.821 21.5059L167.823 21.5941C167.889 23.0869 168.243 24.4361 168.913 25.6143L170.651 24.6257ZM169.821 21.5001C169.802 21.1202 169.792 20.6872 169.792 20.2H167.792C167.792 20.7128 167.802 21.1798 167.823 21.5999L169.821 21.5001ZM169.792 20.2C169.792 19.6917 169.802 19.26 169.821 18.9026L167.823 18.7974C167.802 19.2 167.792 19.6683 167.792 20.2H169.792ZM169.821 18.8934C169.875 17.6548 170.177 16.6377 170.692 15.8069L168.992 14.7531C168.267 15.9223 167.889 17.2852 167.823 18.8066L169.821 18.8934ZM170.696 15.7994C171.212 14.9515 171.933 14.3006 172.886 13.8408L172.018 12.0392C170.731 12.6594 169.712 13.5685 168.987 14.7606L170.696 15.7994ZM172.899 13.8344C173.847 13.3604 175.045 13.1 176.532 13.1V11.1C174.819 11.1 173.297 11.3996 172.005 12.0456L172.899 13.8344ZM176.532 13.1C177.996 13.1 179.185 13.3596 180.135 13.8344L181.029 12.0456C179.739 11.4004 178.228 11.1 176.532 11.1V13.1ZM180.148 13.8408C181.101 14.3006 181.822 14.9515 182.337 15.7994L184.046 14.7606C183.322 13.5685 182.303 12.6594 181.016 12.0392L180.148 13.8408ZM182.342 15.8069C182.857 16.6377 183.159 17.6548 183.213 18.8934L185.211 18.8066C185.145 17.2852 184.767 15.9223 184.042 14.7531L182.342 15.8069ZM183.217 18.9547C183.253 19.2901 183.272 19.7034 183.272 20.2H185.272C185.272 19.6566 185.251 19.1699 185.206 18.7453L183.217 18.9547ZM183.272 20.2C183.272 20.6744 183.253 21.0904 183.217 21.4505L185.207 21.6495C185.251 21.2096 185.272 20.7256 185.272 20.2H183.272ZM183.213 21.5059C183.159 22.7274 182.866 23.7537 182.36 24.613L184.084 25.627C184.778 24.4463 185.145 23.0926 185.211 21.5941L183.213 21.5059ZM182.353 24.6257C181.877 25.4617 181.18 26.1179 180.225 26.5956L181.119 28.3844C182.404 27.7421 183.407 26.8183 184.091 25.6143L182.353 24.6257ZM180.238 26.5892C179.289 27.0465 178.067 27.3 176.532 27.3V29.3C178.276 29.3 179.815 29.0135 181.106 28.3908L180.238 26.5892ZM176.532 26C177.727 26 178.783 25.6246 179.52 24.7402L177.984 23.4598C177.721 23.7754 177.297 24 176.532 24V26ZM179.53 24.7278C180.218 23.875 180.517 22.7307 180.561 21.4339L178.563 21.3661C178.526 22.4293 178.286 23.085 177.974 23.4722L179.53 24.7278ZM180.56 21.4665C180.582 21.1347 180.592 20.7098 180.592 20.2H178.592C178.592 20.6902 178.582 21.0653 178.564 21.3335L180.56 21.4665ZM180.592 20.2C180.592 19.6902 180.582 19.2653 180.56 18.9335L178.564 19.0665C178.582 19.3347 178.592 19.7098 178.592 20.2H180.592ZM180.561 18.9655C180.517 17.6842 180.216 16.5524 179.53 15.7022L177.974 16.9578C178.288 17.3476 178.527 17.9958 178.563 19.0345L180.561 18.9655ZM179.53 15.7022C178.797 14.793 177.738 14.4 176.532 14.4V16.4C177.286 16.4 177.707 16.627 177.974 16.9578L179.53 15.7022ZM176.532 14.4C175.325 14.4 174.266 14.7931 173.516 15.6874L175.048 16.9726C175.338 16.6269 175.779 16.4 176.532 16.4V14.4ZM173.504 15.7022C172.818 16.5524 172.517 17.6842 172.473 18.9655L174.471 19.0345C174.507 17.9958 174.746 17.3476 175.06 16.9578L173.504 15.7022ZM172.474 18.9335C172.452 19.2653 172.442 19.6902 172.442 20.2H174.442C174.442 19.7098 174.452 19.3347 174.47 19.0665L172.474 18.9335ZM172.442 20.2C172.442 20.7098 172.452 21.1347 172.474 21.4665L174.47 21.3335C174.452 21.0653 174.442 20.6902 174.442 20.2H172.442ZM172.473 21.4339C172.516 22.7307 172.816 23.875 173.504 24.7278L175.06 23.4722C174.748 23.085 174.507 22.4293 174.471 21.3661L172.473 21.4339ZM173.526 24.7549C174.28 25.6243 175.336 26 176.532 26V24C175.768 24 175.324 23.7757 175.038 23.4451L173.526 24.7549ZM190.6 27.79L189.893 28.4971L189.917 28.5207L189.942 28.5426L190.6 27.79ZM190.27 27.25L189.315 27.5451L189.322 27.5686L189.33 27.5917L190.27 27.25ZM185.98 13.36L186.936 13.0649L186.924 13.0262L186.909 12.9886L185.98 13.36ZM186.1 12.61L186.807 13.3171L186.807 13.3171L186.1 12.61ZM189.82 12.61L189.113 13.3171L189.113 13.3171L189.82 12.61ZM190.09 13L191.049 12.7175L191.044 12.7005L191.039 12.6838L190.09 13ZM192.82 22.27L191.861 22.5525L192.786 25.6956L193.774 22.5713L192.82 22.27ZM195.73 13.06L196.684 13.3613L196.688 13.3481L196.692 13.3347L195.73 13.06ZM196 12.64L195.293 11.9329L195.293 11.9329L196 12.64ZM199 12.64L198.248 13.2985L198.291 13.3487L198.342 13.3926L199 12.64ZM199.3 13.06L198.339 13.3347L198.342 13.3481L198.347 13.3613L199.3 13.06ZM202.21 22.27L201.257 22.5713L202.244 25.6956L203.169 22.5525L202.21 22.27ZM204.94 13L205.899 13.2825L205.916 13.2243L205.926 13.1644L204.94 13ZM205.18 12.61L204.522 11.8574L204.497 11.8793L204.473 11.9029L205.18 12.61ZM208.87 12.61L208.111 13.2608L208.161 13.3192L208.219 13.3693L208.87 12.61ZM209.05 13.36L210.005 13.657L210.02 13.6072L210.031 13.5561L209.05 13.36ZM204.73 27.25L203.775 26.953L203.77 26.9699L203.765 26.9869L204.73 27.25ZM204.4 27.79L203.742 27.0374L203.717 27.0593L203.693 27.0829L204.4 27.79ZM200.8 27.79L201.459 27.0374L201.459 27.0374L200.8 27.79ZM200.44 27.25L199.49 27.5614L199.495 27.5767L199.5 27.5917L200.44 27.25ZM197.53 18.37L198.48 18.0586L197.54 15.1883L196.582 18.0528L197.53 18.37ZM194.56 27.25L193.612 26.9328L193.603 26.9596L193.595 26.9869L194.56 27.25ZM194.23 27.79L193.572 27.0374L193.572 27.0374L194.23 27.79ZM191.26 27C191.202 27 191.182 26.9926 191.188 26.9946C191.192 26.9957 191.202 26.9992 191.215 27.0066C191.229 27.0142 191.244 27.0244 191.259 27.0374L189.942 28.5426C190.335 28.8869 190.816 29 191.26 29V27ZM191.307 27.0829C191.288 27.0634 191.249 27.0157 191.21 26.9083L189.33 27.5917C189.451 27.9243 189.632 28.2366 189.893 28.4971L191.307 27.0829ZM191.226 26.9549L186.936 13.0649L185.025 13.6551L189.315 27.5451L191.226 26.9549ZM186.909 12.9886C186.91 12.9922 186.913 13.0007 186.916 13.0139C186.918 13.0272 186.92 13.0429 186.92 13.06H184.92C184.92 13.2967 184.968 13.5224 185.052 13.7314L186.909 12.9886ZM186.92 13.06C186.92 13.0827 186.916 13.128 186.894 13.1839C186.871 13.2409 186.838 13.2863 186.807 13.3171L185.393 11.9029C185.073 12.2227 184.92 12.6326 184.92 13.06H186.92ZM186.807 13.3171C186.801 13.3236 186.774 13.3474 186.726 13.3687C186.676 13.3907 186.624 13.4 186.58 13.4V11.4C186.107 11.4 185.7 11.5959 185.393 11.9029L186.807 13.3171ZM186.58 13.4H189.22V11.4H186.58V13.4ZM189.22 13.4C189.262 13.4 189.262 13.4059 189.235 13.3964C189.203 13.3853 189.157 13.3607 189.113 13.3171L190.527 11.9029C190.146 11.5221 189.659 11.4 189.22 11.4V13.4ZM189.113 13.3171C189.131 13.3354 189.145 13.3503 189.154 13.3616C189.164 13.373 189.169 13.3797 189.17 13.3817C189.172 13.3838 189.169 13.3797 189.163 13.3695C189.158 13.3592 189.15 13.3414 189.141 13.3162L191.039 12.6838C190.93 12.3564 190.721 12.0968 190.527 11.9029L189.113 13.3171ZM189.131 13.2825L191.861 22.5525L193.779 21.9875L191.049 12.7175L189.131 13.2825ZM193.774 22.5713L196.684 13.3613L194.777 12.7587L191.867 21.9687L193.774 22.5713ZM196.692 13.3347C196.681 13.3712 196.669 13.39 196.669 13.3908C196.669 13.3911 196.671 13.3874 196.677 13.3797C196.683 13.3721 196.693 13.3612 196.707 13.3471L195.293 11.9329C195.074 12.1517 194.869 12.4336 194.769 12.7853L196.692 13.3347ZM196.707 13.3471C196.695 13.3591 196.681 13.3706 196.665 13.3805C196.65 13.3903 196.636 13.3963 196.627 13.3998C196.608 13.4066 196.614 13.4 196.66 13.4V11.4C196.182 11.4 195.683 11.5429 195.293 11.9329L196.707 13.3471ZM196.66 13.4H198.37V11.4H196.66V13.4ZM198.37 13.4C198.417 13.4 198.414 13.407 198.382 13.3945C198.364 13.388 198.342 13.377 198.316 13.3597C198.291 13.3423 198.268 13.3214 198.248 13.2985L199.753 11.9815C199.367 11.5409 198.842 11.4 198.37 11.4V13.4ZM198.342 13.3926C198.376 13.4231 198.385 13.4369 198.381 13.4312C198.377 13.4247 198.355 13.3925 198.339 13.3347L200.262 12.7853C200.15 12.3934 199.9 12.0991 199.659 11.8874L198.342 13.3926ZM198.347 13.3613L201.257 22.5713L203.164 21.9687L200.254 12.7587L198.347 13.3613ZM203.169 22.5525L205.899 13.2825L203.981 12.7175L201.251 21.9875L203.169 22.5525ZM205.926 13.1644C205.911 13.2598 205.878 13.3185 205.867 13.3366C205.856 13.3543 205.857 13.3473 205.887 13.3171L204.473 11.9029C204.27 12.1057 204.023 12.4172 203.954 12.8356L205.926 13.1644ZM205.839 13.3626C205.832 13.3686 205.823 13.3754 205.811 13.3819C205.8 13.3884 205.79 13.3931 205.78 13.3964C205.761 13.4031 205.758 13.4 205.78 13.4V11.4C205.331 11.4 204.888 11.5372 204.522 11.8574L205.839 13.3626ZM205.78 13.4H208.42V11.4H205.78V13.4ZM208.42 13.4C208.377 13.4 208.313 13.3907 208.245 13.3587C208.177 13.3269 208.133 13.2865 208.111 13.2608L209.629 11.9592C209.325 11.6038 208.9 11.4 208.42 11.4V13.4ZM208.219 13.3693C208.194 13.3472 208.153 13.3034 208.121 13.2354C208.089 13.1667 208.08 13.1032 208.08 13.06H210.08C210.08 12.58 209.876 12.1554 209.521 11.8507L208.219 13.3693ZM208.08 13.06C208.08 13.0929 208.077 13.1272 208.069 13.1639L210.031 13.5561C210.063 13.3928 210.08 13.2271 210.08 13.06H208.08ZM208.095 13.063L203.775 26.953L205.685 27.547L210.005 13.657L208.095 13.063ZM203.765 26.9869C203.758 27.0133 203.751 27.0252 203.749 27.0286C203.748 27.0314 203.746 27.0336 203.742 27.0374L205.059 28.5426C205.377 28.2636 205.587 27.9084 205.695 27.5131L203.765 26.9869ZM203.693 27.0829C203.718 27.0583 203.743 27.0389 203.767 27.0244C203.791 27.0101 203.81 27.0025 203.821 26.9988C203.841 26.9922 203.83 27 203.77 27V29C204.204 29 204.714 28.8908 205.107 28.4971L203.693 27.0829ZM203.77 27H201.46V29H203.77V27ZM201.46 27C201.402 27 201.382 26.9926 201.388 26.9946C201.392 26.9957 201.402 26.9992 201.415 27.0066C201.429 27.0142 201.444 27.0244 201.459 27.0374L200.142 28.5426C200.535 28.8869 201.016 29 201.46 29V27ZM201.459 27.0374C201.438 27.0194 201.408 26.9862 201.38 26.9083L199.5 27.5917C199.632 27.9538 199.842 28.2806 200.142 28.5426L201.459 27.0374ZM201.39 26.9386L198.48 18.0586L196.58 18.6814L199.49 27.5614L201.39 26.9386ZM196.582 18.0528L193.612 26.9328L195.508 27.5672L198.478 18.6872L196.582 18.0528ZM193.595 26.9869C193.588 27.0133 193.581 27.0252 193.579 27.0285C193.578 27.0314 193.576 27.0336 193.572 27.0374L194.889 28.5426C195.207 28.2636 195.417 27.9084 195.525 27.5131L193.595 26.9869ZM193.572 27.0374C193.586 27.0244 193.601 27.0142 193.615 27.0066C193.629 26.9992 193.638 26.9957 193.642 26.9946C193.648 26.9926 193.628 27 193.57 27V29C194.014 29 194.495 28.8869 194.889 28.5426L193.572 27.0374ZM193.57 27H191.26V29H193.57V27Z" fill="black" mask="url(#path-1-outside-1_1_4592)"/>
<rect y="7.89111" width="9.78261" height="9.78261" transform="rotate(-30 0 7.89111)" fill="#FFB82B"/>
<rect x="4.13086" y="18" width="10" height="10" fill="#FFB82B"/>
<rect x="18.1309" y="5" width="10" height="10" fill="#FFB82B"/>
<rect x="18.1309" y="18" width="10" height="10" fill="#FFB82B"/>
</svg>
