<svg width="543" height="242" viewBox="0 0 543 242" fill="none" xmlns="http://www.w3.org/2000/svg">
<path d="M79.4131 0H103.938V242H74.7418L24.5246 54.4695V242H0V0H31.1424L79.4131 180.916V0Z" fill="white"/>
<path d="M152.19 0H191.897C212.399 0 222.65 10.2454 222.65 30.7363V211.264C222.65 231.755 212.399 242 191.897 242H152.19C131.688 242 121.437 231.755 121.437 211.264V30.7363C121.437 10.2454 131.688 0 152.19 0ZM196.179 206.984V35.0161C196.179 29.8285 195.4 26.5863 193.843 25.2894C192.286 23.7331 189.042 22.955 184.111 22.955H159.976C155.045 22.955 151.801 23.7331 150.244 25.2894C148.687 26.5863 147.908 29.8285 147.908 35.0161V206.984C147.908 212.171 148.687 215.543 150.244 217.1C151.801 218.397 155.045 219.045 159.976 219.045H184.111C189.042 219.045 192.286 218.397 193.843 217.1C195.4 215.543 196.179 212.171 196.179 206.984Z" fill="white"/>
<path d="M266.775 140.842V242H240.304V0H310.764C331.266 0 341.517 10.2454 341.517 30.7363V110.106C341.517 128.522 333.472 138.638 317.382 140.453L353.974 242H325.167L289.743 140.842H266.775ZM266.775 22.955V117.887H302.978C308.169 117.887 311.413 117.239 312.71 115.942C314.268 114.386 315.046 111.014 315.046 105.826V35.0161C315.046 29.8285 314.268 26.5863 312.71 25.2894C311.413 23.7331 308.169 22.955 302.978 22.955H266.775Z" fill="white"/>
<path d="M443.609 0V22.955H404.681V242H378.21V22.955H339.282V0H443.609Z" fill="white"/>
<path d="M472.54 0H512.247C532.749 0 543 10.2454 543 30.7363V211.264C543 231.755 532.749 242 512.247 242H472.54C452.038 242 441.787 231.755 441.787 211.264V30.7363C441.787 10.2454 452.038 0 472.54 0ZM516.529 206.984V35.0161C516.529 29.8285 515.75 26.5863 514.193 25.2894C512.636 23.7331 509.392 22.955 504.461 22.955H480.326C475.395 22.955 472.151 23.7331 470.594 25.2894C469.037 26.5863 468.258 29.8285 468.258 35.0161V206.984C468.258 212.171 469.037 215.543 470.594 217.1C472.151 218.397 475.395 219.045 480.326 219.045H504.461C509.392 219.045 512.636 218.397 514.193 217.1C515.75 215.543 516.529 212.171 516.529 206.984Z" fill="white"/>
</svg>
