<svg width="185" height="48" viewBox="0 0 185 48" fill="none" xmlns="http://www.w3.org/2000/svg">
<path d="M113.946 29.0186V34.2529H116.856C117.612 34.2529 118.116 34.139 118.37 33.9111C118.709 33.6117 118.897 33.0843 118.937 32.3291H119.298V36.9385H118.937C118.845 36.2939 118.754 35.8805 118.663 35.6982C118.546 35.4704 118.354 35.2913 118.087 35.1611C117.82 35.0309 117.41 34.9658 116.856 34.9658H113.946V39.3311C113.946 39.917 113.972 40.2751 114.024 40.4053C114.076 40.529 114.168 40.6299 114.298 40.708C114.428 40.7796 114.675 40.8154 115.04 40.8154H117.286C118.035 40.8154 118.578 40.7633 118.917 40.6592C119.256 40.555 119.581 40.3499 119.894 40.0439C120.297 39.6403 120.711 39.0316 121.134 38.2178H121.524L120.382 41.5381H110.177V41.1768H110.646C110.958 41.1768 111.254 41.1019 111.534 40.9521C111.743 40.848 111.882 40.6917 111.954 40.4834C112.032 40.2751 112.071 39.8486 112.071 39.2041V30.6006C112.071 29.7607 111.987 29.2432 111.817 29.0479C111.583 28.7874 111.192 28.6572 110.646 28.6572H110.177V28.2959H120.382L120.528 31.1963H120.147C120.011 30.4997 119.858 30.0212 119.688 29.7607C119.526 29.5003 119.282 29.3018 118.956 29.165C118.696 29.0674 118.237 29.0186 117.579 29.0186H113.946Z" fill="white"/>
<path d="M83.75 28.2959H87.3438L95.4395 38.2275V30.5908C95.4395 29.777 95.3483 29.2692 95.166 29.0674C94.9251 28.7939 94.5443 28.6572 94.0234 28.6572H93.5645V28.2959H98.1738V28.6572H97.7051C97.1452 28.6572 96.748 28.8265 96.5137 29.165C96.3704 29.3734 96.2988 29.8486 96.2988 30.5908V41.7529H95.9473L87.2168 31.0889V39.2432C87.2168 40.057 87.3047 40.5648 87.4805 40.7666C87.7279 41.04 88.1087 41.1768 88.623 41.1768H89.0918V41.5381H84.4824V41.1768H84.9414C85.5078 41.1768 85.9082 41.0075 86.1426 40.6689C86.2858 40.4606 86.3574 39.9854 86.3574 39.2432V30.0342C85.9733 29.585 85.6803 29.2887 85.4785 29.1455C85.2832 29.0023 84.9935 28.8688 84.6094 28.7451C84.4206 28.6865 84.1341 28.6572 83.75 28.6572V28.2959Z" fill="white"/>
<path d="M65.5752 27.9932C67.2939 27.9932 68.7816 28.6475 70.0381 29.9561C71.3011 31.2581 71.9326 32.8857 71.9326 34.8389C71.9326 36.8506 71.2979 38.5205 70.0283 39.8486C68.7588 41.1768 67.2223 41.8408 65.4189 41.8408C63.596 41.8408 62.0628 41.193 60.8193 39.8975C59.5824 38.6019 58.9639 36.9255 58.9639 34.8682C58.9639 32.7653 59.68 31.0498 61.1123 29.7217C62.3558 28.5693 63.8434 27.9932 65.5752 27.9932ZM65.3896 28.7061C64.2048 28.7061 63.2542 29.1455 62.5381 30.0244C61.6462 31.1182 61.2002 32.7197 61.2002 34.8291C61.2002 36.9906 61.6624 38.654 62.5869 39.8193C63.2965 40.7048 64.234 41.1475 65.3994 41.1475C66.6429 41.1475 67.6683 40.6624 68.4756 39.6924C69.2894 38.7223 69.6963 37.1924 69.6963 35.1025C69.6963 32.8369 69.2503 31.1475 68.3584 30.0342C67.6423 29.1488 66.6527 28.7061 65.3896 28.7061Z" fill="white"/>
<path d="M175.044 15.0127H175.679L176.021 16.7803C176.261 17.0863 176.675 17.3564 177.261 17.5908C177.853 17.8252 178.436 17.9424 179.009 17.9424C179.92 17.9424 180.63 17.7113 181.138 17.249C181.652 16.7803 181.909 16.1357 181.909 15.3154C181.909 14.8467 181.808 14.4593 181.606 14.1533C181.411 13.8473 181.151 13.5902 180.825 13.3818C180.506 13.167 180.142 12.988 179.731 12.8447C179.321 12.695 178.898 12.5452 178.462 12.3955C178.032 12.2458 177.612 12.0798 177.202 11.8975C176.792 11.7152 176.424 11.484 176.099 11.2041C175.78 10.9242 175.519 10.5791 175.317 10.1689C175.122 9.75228 175.024 9.24121 175.024 8.63574C175.024 7.59408 175.415 6.77702 176.196 6.18457C176.978 5.59212 178.062 5.2959 179.448 5.2959C180.503 5.2959 181.649 5.43587 182.886 5.71582V8.44043H182.251L181.909 6.83887C181.245 6.3571 180.425 6.11621 179.448 6.11621C178.576 6.11621 177.892 6.29525 177.397 6.65332C176.909 7.00488 176.665 7.49316 176.665 8.11816C176.665 8.54134 176.763 8.8929 176.958 9.17285C177.16 9.4528 177.42 9.69368 177.739 9.89551C178.065 10.0908 178.433 10.2601 178.843 10.4033C179.259 10.5465 179.683 10.6963 180.112 10.8525C180.549 11.0023 180.972 11.1748 181.382 11.3701C181.799 11.5589 182.166 11.8031 182.485 12.1025C182.811 12.3955 183.071 12.7568 183.267 13.1865C183.468 13.6097 183.569 14.1338 183.569 14.7588C183.569 16.0218 183.182 17.0016 182.407 17.6982C181.632 18.3883 180.516 18.7334 179.058 18.7334C178.354 18.7334 177.648 18.6715 176.938 18.5479C176.229 18.4242 175.597 18.2549 175.044 18.04V15.0127Z" fill="white"/>
<path d="M153.236 18.5381V18.0205L155.316 17.7568V6.28223H154.818C153.171 6.28223 152.045 6.34733 151.439 6.47754L151.176 8.51855H150.521V5.44238H162.045V8.51855H161.381L161.117 6.47754C160.922 6.43197 160.495 6.3929 159.838 6.36035C159.18 6.32129 158.461 6.30176 157.68 6.30176H157.201V17.7568L159.281 18.0205V18.5381H153.236Z" fill="white"/>
<path d="M135.687 6.21387L133.929 5.95996V5.44238H138.392V5.95996L136.712 6.21387V18.5381H135.765L127.688 6.76074V17.7568L129.446 18.0205V18.5381H124.983V18.0205L126.663 17.7568V6.21387L124.983 5.95996V5.44238H128.948L135.687 15.1396V6.21387Z" fill="white"/>
<path d="M110.724 17.7568L112.403 18.0205V18.5381H107.169V18.0205L108.849 17.7568V6.21387L107.169 5.95996V5.44238H112.403V5.95996L110.724 6.21387V17.7568Z" fill="white"/>
<path d="M83.5547 11.9756C83.5547 14.0785 83.9062 15.6019 84.6094 16.5459C85.3125 17.4899 86.4128 17.9619 87.9102 17.9619C89.401 17.9619 90.5013 17.4899 91.2109 16.5459C91.9206 15.6019 92.2754 14.0785 92.2754 11.9756C92.2754 9.88574 91.9206 8.38184 91.2109 7.46387C90.5078 6.53939 89.4076 6.07715 87.9102 6.07715C86.4062 6.07715 85.3027 6.53939 84.5996 7.46387C83.903 8.38184 83.5547 9.88574 83.5547 11.9756ZM81.5137 11.9756C81.5137 7.52246 83.6458 5.2959 87.9102 5.2959C90.0195 5.2959 91.6146 5.8623 92.6953 6.99512C93.776 8.12142 94.3164 9.78158 94.3164 11.9756C94.3164 14.2021 93.7695 15.8851 92.6758 17.0244C91.582 18.1637 89.9935 18.7334 87.9102 18.7334C85.8333 18.7334 84.248 18.167 83.1543 17.0342C82.0605 15.8949 81.5137 14.2087 81.5137 11.9756Z" fill="white"/>
<path d="M66.6396 9.31934C66.6396 8.24512 66.389 7.47689 65.8877 7.01465C65.3864 6.55241 64.5433 6.32129 63.3584 6.32129H62.4014V12.5225H63.417C64.5173 12.5225 65.3278 12.2718 65.8486 11.7705C66.376 11.2692 66.6396 10.4521 66.6396 9.31934ZM62.4014 13.4014V17.7568L64.4814 18.0205V18.5381H58.9639V18.0205L60.5166 17.7568V6.21387L58.8369 5.95996V5.44238H63.7783C66.9814 5.44238 68.583 6.72819 68.583 9.2998C68.583 10.641 68.1761 11.6598 67.3623 12.3564C66.555 13.0531 65.3929 13.4014 63.876 13.4014H62.4014Z" fill="white"/>
<path d="M5.70119 13.3018L23.6843 0.611952L41.6675 13.3018L43.6656 35.2205L23.6843 44.4495L3.70306 35.2205L5.70119 13.3018Z" stroke="white"/>
<path d="M9.06473 15.2437L23.6843 4.92738L38.3039 15.2437L39.9283 33.0628L23.6843 40.5655L7.44033 33.0628L9.06473 15.2437Z" stroke="white"/>
<path d="M12.3789 17.1569L23.6847 9.17897L34.9905 17.1569L36.2467 30.937L23.6847 36.7391L11.1227 30.937L12.3789 17.1569Z" stroke="white"/>
<path d="M16.0545 19.2789L23.6847 13.8947L31.3148 19.2789L32.1626 28.5789L23.6847 32.4947L15.2067 28.5789L16.0545 19.2789Z" stroke="white"/>
<rect x="126.865" y="28.4324" width="57.5341" height="2.17102" fill="white"/>
<rect x="126.865" y="33.4983" width="57.5341" height="2.17102" fill="white"/>
<rect x="126.865" y="38.6848" width="57.5341" height="2.17102" fill="white"/>
</svg>
