<svg width="205" height="52" viewBox="0 0 205 52" fill="none" xmlns="http://www.w3.org/2000/svg">
<path d="M201.029 40.4616L200.189 40.8016V30.1616H202.849V43.1016H200.189L189.729 32.8816L190.569 32.5416V43.1016H187.909V30.1616H190.569L201.029 40.4616Z" fill="white"/>
<path d="M160.098 37.7016V40.8816H170.078V43.1016H157.438V30.1616H170.058V32.3816H160.098V35.6016H168.258V37.7016H160.098Z" fill="white"/>
<path d="M129.627 37.7016V40.8816H139.607V43.1016H126.967V30.1616H139.587V32.3816H129.627V35.6016H137.787V37.7016H129.627Z" fill="white"/>
<path d="M95.3438 43.1016V30.1616H104.124C105.124 30.1616 105.99 30.3016 106.724 30.5816C107.47 30.8483 108.05 31.275 108.464 31.8616C108.877 32.435 109.084 33.175 109.084 34.0816C109.084 34.695 108.977 35.215 108.764 35.6416C108.55 36.0683 108.25 36.415 107.864 36.6816C107.49 36.9483 107.057 37.155 106.564 37.3016C106.07 37.435 105.544 37.5216 104.984 37.5616L104.704 37.4016C105.637 37.415 106.404 37.495 107.004 37.6416C107.604 37.775 108.05 38.0283 108.344 38.4016C108.65 38.7616 108.804 39.3016 108.804 40.0216V43.1016H106.144V40.2016C106.144 39.7083 106.057 39.3283 105.884 39.0616C105.71 38.7816 105.397 38.5883 104.944 38.4816C104.504 38.375 103.864 38.3216 103.024 38.3216H98.0037V43.1016H95.3438ZM98.0037 36.2416H104.124C104.87 36.2416 105.437 36.0616 105.824 35.7016C106.224 35.3416 106.424 34.855 106.424 34.2416C106.424 33.655 106.224 33.2083 105.824 32.9016C105.437 32.595 104.87 32.4416 104.124 32.4416H98.0037V36.2416Z" fill="white"/>
<path d="M69.4024 43.3616C68.2024 43.3616 67.1158 43.2216 66.1424 42.9416C65.1824 42.6616 64.3491 42.2416 63.6424 41.6816C62.9491 41.1216 62.4158 40.4283 62.0424 39.6016C61.6691 38.7749 61.4824 37.8216 61.4824 36.7416C61.4824 35.6483 61.6758 34.6816 62.0624 33.8416C62.4624 32.9883 63.0224 32.2683 63.7424 31.6816C64.4758 31.0949 65.3424 30.6549 66.3424 30.3616C67.3558 30.0549 68.4758 29.9016 69.7024 29.9016C71.1558 29.9016 72.4091 30.1083 73.4624 30.5216C74.5158 30.9216 75.3424 31.4883 75.9424 32.2216C76.5558 32.9549 76.9024 33.8283 76.9824 34.8416H74.4224C74.2491 34.3083 73.9624 33.8483 73.5624 33.4616C73.1758 33.0616 72.6624 32.7549 72.0224 32.5416C71.3824 32.3149 70.6091 32.2016 69.7024 32.2016C68.5424 32.2016 67.5491 32.3883 66.7224 32.7616C65.9091 33.1349 65.2891 33.6616 64.8624 34.3416C64.4358 35.0216 64.2224 35.8216 64.2224 36.7416C64.2224 37.6349 64.4091 38.4083 64.7824 39.0616C65.1558 39.7016 65.7291 40.1949 66.5024 40.5416C67.2891 40.8883 68.2891 41.0616 69.5024 41.0616C70.4358 41.0616 71.2558 40.9416 71.9624 40.7016C72.6824 40.4483 73.2824 40.1149 73.7624 39.7016C74.2424 39.2749 74.5824 38.8016 74.7824 38.2816L75.8224 37.9016C75.6491 39.6216 74.9958 40.9616 73.8624 41.9216C72.7424 42.8816 71.2558 43.3616 69.4024 43.3616ZM75.1424 43.1016C75.1424 42.6883 75.1691 42.2149 75.2224 41.6816C75.2758 41.1349 75.3424 40.5883 75.4224 40.0416C75.5024 39.4816 75.5758 38.9683 75.6424 38.5016H69.7224V36.8016H77.4424V43.1016H75.1424Z" fill="white"/>
<path d="M196.162 19.3616C194.442 19.3616 192.969 19.0949 191.742 18.5616C190.529 18.0149 189.596 17.2416 188.942 16.2416C188.302 15.2416 187.982 14.0416 187.982 12.6416C187.982 11.2283 188.302 10.0216 188.942 9.02161C189.596 8.02161 190.529 7.25494 191.742 6.72161C192.969 6.17495 194.442 5.90161 196.162 5.90161C197.896 5.90161 199.369 6.17495 200.582 6.72161C201.796 7.25494 202.722 8.02161 203.362 9.02161C204.016 10.0216 204.342 11.2283 204.342 12.6416C204.342 14.0416 204.016 15.2416 203.362 16.2416C202.722 17.2416 201.796 18.0149 200.582 18.5616C199.369 19.0949 197.896 19.3616 196.162 19.3616ZM196.162 17.0616C197.229 17.0616 198.162 16.9016 198.962 16.5816C199.776 16.2616 200.409 15.7749 200.862 15.1216C201.329 14.4683 201.562 13.6416 201.562 12.6416C201.562 11.6416 201.329 10.8149 200.862 10.1616C200.409 9.50828 199.776 9.02161 198.962 8.70161C198.162 8.36828 197.229 8.20161 196.162 8.20161C195.109 8.20161 194.169 8.36828 193.342 8.70161C192.516 9.02161 191.869 9.50828 191.402 10.1616C190.936 10.8149 190.702 11.6416 190.702 12.6416C190.702 13.6416 190.936 14.4683 191.402 15.1216C191.869 15.7749 192.516 16.2616 193.342 16.5816C194.169 16.9016 195.109 17.0616 196.162 17.0616Z" fill="white"/>
<path d="M171.058 6.16162H173.718V19.1016H171.058V6.16162Z" fill="white"/>
<path d="M149.2 6.16162C150.653 6.16162 151.866 6.33495 152.84 6.68162C153.813 7.02829 154.586 7.50162 155.16 8.10162C155.746 8.68829 156.16 9.36829 156.4 10.1416C156.653 10.915 156.78 11.7283 156.78 12.5816C156.78 13.435 156.64 14.255 156.36 15.0416C156.093 15.8283 155.66 16.5283 155.06 17.1416C154.473 17.7416 153.693 18.2216 152.72 18.5816C151.76 18.9283 150.586 19.1016 149.2 19.1016H141.8V6.16162H149.2ZM144.46 16.8216H149.14C150.1 16.8216 150.893 16.7083 151.52 16.4816C152.16 16.2416 152.666 15.9216 153.04 15.5216C153.413 15.1216 153.68 14.6683 153.84 14.1616C154 13.655 154.08 13.1283 154.08 12.5816C154.08 12.035 154 11.515 153.84 11.0216C153.68 10.5283 153.413 10.0883 153.04 9.70162C152.666 9.31495 152.16 9.00829 151.52 8.78162C150.893 8.55495 150.1 8.44162 149.14 8.44162H144.46V16.8216Z" fill="white"/>
<path d="M124.763 13.3816V6.16162H127.423V13.6616C127.423 14.515 127.296 15.2616 127.043 15.9016C126.803 16.5416 126.456 17.0816 126.003 17.5216C125.549 17.9616 125.016 18.3216 124.403 18.6016C123.803 18.8683 123.143 19.0616 122.423 19.1816C121.716 19.3016 120.969 19.3616 120.183 19.3616C119.369 19.3616 118.596 19.3016 117.863 19.1816C117.129 19.0616 116.456 18.8683 115.843 18.6016C115.243 18.3216 114.723 17.9616 114.283 17.5216C113.843 17.0816 113.496 16.5416 113.243 15.9016C113.003 15.2616 112.883 14.515 112.883 13.6616V6.16162H115.543V13.3816C115.543 14.395 115.743 15.1683 116.143 15.7016C116.543 16.2216 117.089 16.5816 117.783 16.7816C118.489 16.9683 119.289 17.0616 120.183 17.0616C121.049 17.0616 121.823 16.9683 122.503 16.7816C123.196 16.5816 123.743 16.2216 124.143 15.7016C124.556 15.1683 124.763 14.395 124.763 13.3816Z" fill="white"/>
<path d="M86.0088 6.16162H99.6488V8.38162H86.0088V6.16162ZM91.5088 8.10162H94.1688V19.1016H91.5088V8.10162Z" fill="white"/>
<path d="M61.1024 14.7416H63.8024C63.8557 15.1949 64.0624 15.6083 64.4224 15.9816C64.7957 16.3416 65.2824 16.6283 65.8824 16.8416C66.4824 17.0416 67.1557 17.1416 67.9024 17.1416C68.5824 17.1416 69.1424 17.0683 69.5824 16.9216C70.0224 16.7749 70.349 16.5683 70.5624 16.3016C70.7757 16.0349 70.8824 15.7149 70.8824 15.3416C70.8824 14.9816 70.749 14.7083 70.4824 14.5216C70.2157 14.3216 69.7957 14.1616 69.2224 14.0416C68.649 13.9083 67.8957 13.7749 66.9624 13.6416C66.229 13.5349 65.5357 13.3883 64.8824 13.2016C64.229 13.0016 63.649 12.7483 63.1424 12.4416C62.649 12.1349 62.2557 11.7616 61.9624 11.3216C61.6824 10.8683 61.5424 10.3349 61.5424 9.72161C61.5424 8.96161 61.7557 8.29495 62.1824 7.72161C62.6224 7.14828 63.269 6.70161 64.1224 6.38161C64.9757 6.06161 66.0224 5.90161 67.2624 5.90161C69.129 5.90161 70.5624 6.30161 71.5624 7.10161C72.5757 7.88828 73.069 8.97495 73.0424 10.3616H70.4424C70.389 9.57495 70.0557 9.00828 69.4424 8.66161C68.8424 8.31494 68.0824 8.14161 67.1624 8.14161C66.309 8.14161 65.6024 8.26828 65.0424 8.52161C64.4957 8.77494 64.2224 9.20828 64.2224 9.82161C64.2224 10.0616 64.289 10.2749 64.4224 10.4616C64.5557 10.6349 64.7824 10.7883 65.1024 10.9216C65.4224 11.0549 65.8557 11.1816 66.4024 11.3016C66.949 11.4216 67.629 11.5416 68.4424 11.6616C69.2024 11.7683 69.889 11.9149 70.5024 12.1016C71.129 12.2749 71.6624 12.5083 72.1024 12.8016C72.5557 13.0816 72.9024 13.4416 73.1424 13.8816C73.3824 14.3216 73.5024 14.8616 73.5024 15.5016C73.5024 16.2883 73.2957 16.9749 72.8824 17.5616C72.4824 18.1349 71.8557 18.5816 71.0024 18.9016C70.1624 19.2216 69.069 19.3816 67.7224 19.3816C66.7624 19.3816 65.9157 19.2816 65.1824 19.0816C64.449 18.8683 63.8157 18.5883 63.2824 18.2416C62.749 17.8949 62.3157 17.5149 61.9824 17.1016C61.649 16.6883 61.409 16.2749 61.2624 15.8616C61.129 15.4483 61.0757 15.0749 61.1024 14.7416Z" fill="white"/>
<path d="M25.8043 0L27.283 17.4183L34.6299 1.55619L30.062 18.4297L42.391 6.03706L32.3275 20.3307L48.1515 12.9022L33.8062 22.8919L51.2166 21.3234L34.3197 25.8043L51.2166 30.2852L33.8062 28.7168L48.1515 38.7065L32.3275 31.2779L42.391 45.5716L30.062 33.1789L34.6299 50.0525L27.283 34.1904L25.8043 51.6086L24.3256 34.1904L16.9787 50.0525L21.5466 33.1789L9.21762 45.5716L19.2811 31.2779L3.45712 38.7065L17.8024 28.7168L0.392025 30.2852L17.2889 25.8043L0.392025 21.3234L17.8024 22.8919L3.45712 12.9022L19.2811 20.3307L9.21762 6.03706L21.5466 18.4297L16.9787 1.55619L24.3256 17.4183L25.8043 0Z" fill="white"/>
</svg>
